G04 #@! TF.FileFunction,Legend,Top*
%FSLAX46Y46*%
G04 Gerber Fmt 4.6, Leading zero omitted, Abs format (unit mm)*
G04 Created by KiCad (PCBNEW 4.0.6) date Wed Sep 27 08:45:41 2017*
%MOMM*%
%LPD*%
G01*
G04 APERTURE LIST*
%ADD10C,0.100000*%
%ADD11C,0.250000*%
%ADD12C,0.152400*%
%ADD13C,0.120000*%
%ADD14C,0.150000*%
%ADD15C,0.050000*%
G04 APERTURE END LIST*
D10*
D11*
X148451381Y-139548334D02*
X149451381Y-139310239D01*
X148737095Y-139119762D01*
X149451381Y-138929286D01*
X148451381Y-138691191D01*
X149451381Y-137881667D02*
X148927571Y-137881667D01*
X148832333Y-137929286D01*
X148784714Y-138024524D01*
X148784714Y-138215001D01*
X148832333Y-138310239D01*
X149403762Y-137881667D02*
X149451381Y-137976905D01*
X149451381Y-138215001D01*
X149403762Y-138310239D01*
X149308524Y-138357858D01*
X149213286Y-138357858D01*
X149118048Y-138310239D01*
X149070429Y-138215001D01*
X149070429Y-137976905D01*
X149022810Y-137881667D01*
X149451381Y-137262620D02*
X149403762Y-137357858D01*
X149308524Y-137405477D01*
X148451381Y-137405477D01*
X149451381Y-136738810D02*
X149403762Y-136834048D01*
X149308524Y-136881667D01*
X148451381Y-136881667D01*
X149403762Y-136405476D02*
X149451381Y-136310238D01*
X149451381Y-136119762D01*
X149403762Y-136024523D01*
X149308524Y-135976904D01*
X149260905Y-135976904D01*
X149165667Y-136024523D01*
X149118048Y-136119762D01*
X149118048Y-136262619D01*
X149070429Y-136357857D01*
X148975190Y-136405476D01*
X148927571Y-136405476D01*
X148832333Y-136357857D01*
X148784714Y-136262619D01*
X148784714Y-136119762D01*
X148832333Y-136024523D01*
X148784714Y-135643571D02*
X149451381Y-135405476D01*
X148784714Y-135167380D02*
X149451381Y-135405476D01*
X149689476Y-135500714D01*
X149737095Y-135548333D01*
X149784714Y-135643571D01*
X149451381Y-134024523D02*
X148451381Y-134024523D01*
X149165667Y-133691189D01*
X148451381Y-133357856D01*
X149451381Y-133357856D01*
X149451381Y-132453094D02*
X148927571Y-132453094D01*
X148832333Y-132500713D01*
X148784714Y-132595951D01*
X148784714Y-132786428D01*
X148832333Y-132881666D01*
X149403762Y-132453094D02*
X149451381Y-132548332D01*
X149451381Y-132786428D01*
X149403762Y-132881666D01*
X149308524Y-132929285D01*
X149213286Y-132929285D01*
X149118048Y-132881666D01*
X149070429Y-132786428D01*
X149070429Y-132548332D01*
X149022810Y-132453094D01*
X149451381Y-131976904D02*
X148784714Y-131976904D01*
X148451381Y-131976904D02*
X148499000Y-132024523D01*
X148546619Y-131976904D01*
X148499000Y-131929285D01*
X148451381Y-131976904D01*
X148546619Y-131976904D01*
X148784714Y-131500714D02*
X149451381Y-131500714D01*
X148879952Y-131500714D02*
X148832333Y-131453095D01*
X148784714Y-131357857D01*
X148784714Y-131214999D01*
X148832333Y-131119761D01*
X148927571Y-131072142D01*
X149451381Y-131072142D01*
X148927571Y-129500713D02*
X148975190Y-129357856D01*
X149022810Y-129310237D01*
X149118048Y-129262618D01*
X149260905Y-129262618D01*
X149356143Y-129310237D01*
X149403762Y-129357856D01*
X149451381Y-129453094D01*
X149451381Y-129834047D01*
X148451381Y-129834047D01*
X148451381Y-129500713D01*
X148499000Y-129405475D01*
X148546619Y-129357856D01*
X148641857Y-129310237D01*
X148737095Y-129310237D01*
X148832333Y-129357856D01*
X148879952Y-129405475D01*
X148927571Y-129500713D01*
X148927571Y-129834047D01*
X149451381Y-128691190D02*
X149403762Y-128786428D01*
X149356143Y-128834047D01*
X149260905Y-128881666D01*
X148975190Y-128881666D01*
X148879952Y-128834047D01*
X148832333Y-128786428D01*
X148784714Y-128691190D01*
X148784714Y-128548332D01*
X148832333Y-128453094D01*
X148879952Y-128405475D01*
X148975190Y-128357856D01*
X149260905Y-128357856D01*
X149356143Y-128405475D01*
X149403762Y-128453094D01*
X149451381Y-128548332D01*
X149451381Y-128691190D01*
X149451381Y-127500713D02*
X148927571Y-127500713D01*
X148832333Y-127548332D01*
X148784714Y-127643570D01*
X148784714Y-127834047D01*
X148832333Y-127929285D01*
X149403762Y-127500713D02*
X149451381Y-127595951D01*
X149451381Y-127834047D01*
X149403762Y-127929285D01*
X149308524Y-127976904D01*
X149213286Y-127976904D01*
X149118048Y-127929285D01*
X149070429Y-127834047D01*
X149070429Y-127595951D01*
X149022810Y-127500713D01*
X149451381Y-127024523D02*
X148784714Y-127024523D01*
X148975190Y-127024523D02*
X148879952Y-126976904D01*
X148832333Y-126929285D01*
X148784714Y-126834047D01*
X148784714Y-126738808D01*
X149451381Y-125976903D02*
X148451381Y-125976903D01*
X149403762Y-125976903D02*
X149451381Y-126072141D01*
X149451381Y-126262618D01*
X149403762Y-126357856D01*
X149356143Y-126405475D01*
X149260905Y-126453094D01*
X148975190Y-126453094D01*
X148879952Y-126405475D01*
X148832333Y-126357856D01*
X148784714Y-126262618D01*
X148784714Y-126072141D01*
X148832333Y-125976903D01*
X150439476Y-137762620D02*
X150391857Y-137857858D01*
X150391857Y-138048334D01*
X150439476Y-138143572D01*
X150534714Y-138238810D01*
X150629952Y-138286429D01*
X150820429Y-138286429D01*
X150915667Y-138238810D01*
X151010905Y-138143572D01*
X151058524Y-138048334D01*
X151058524Y-137857858D01*
X151010905Y-137762620D01*
X150058524Y-137953096D02*
X150106143Y-138191191D01*
X150249000Y-138429287D01*
X150487095Y-138572144D01*
X150725190Y-138619763D01*
X150963286Y-138572144D01*
X151201381Y-138429287D01*
X151344238Y-138191191D01*
X151391857Y-137953096D01*
X151344238Y-137715001D01*
X151201381Y-137476906D01*
X150963286Y-137334049D01*
X150725190Y-137286429D01*
X150487095Y-137334049D01*
X150249000Y-137476906D01*
X150106143Y-137715001D01*
X150058524Y-137953096D01*
X151153762Y-136143572D02*
X151201381Y-136000715D01*
X151201381Y-135762619D01*
X151153762Y-135667381D01*
X151106143Y-135619762D01*
X151010905Y-135572143D01*
X150915667Y-135572143D01*
X150820429Y-135619762D01*
X150772810Y-135667381D01*
X150725190Y-135762619D01*
X150677571Y-135953096D01*
X150629952Y-136048334D01*
X150582333Y-136095953D01*
X150487095Y-136143572D01*
X150391857Y-136143572D01*
X150296619Y-136095953D01*
X150249000Y-136048334D01*
X150201381Y-135953096D01*
X150201381Y-135715000D01*
X150249000Y-135572143D01*
X150534714Y-135286429D02*
X150534714Y-134905477D01*
X150201381Y-135143572D02*
X151058524Y-135143572D01*
X151153762Y-135095953D01*
X151201381Y-135000715D01*
X151201381Y-134905477D01*
X151153762Y-134191190D02*
X151201381Y-134286428D01*
X151201381Y-134476905D01*
X151153762Y-134572143D01*
X151058524Y-134619762D01*
X150677571Y-134619762D01*
X150582333Y-134572143D01*
X150534714Y-134476905D01*
X150534714Y-134286428D01*
X150582333Y-134191190D01*
X150677571Y-134143571D01*
X150772810Y-134143571D01*
X150868048Y-134619762D01*
X150534714Y-133857857D02*
X150534714Y-133476905D01*
X151201381Y-133715000D02*
X150344238Y-133715000D01*
X150249000Y-133667381D01*
X150201381Y-133572143D01*
X150201381Y-133476905D01*
X151201381Y-132381666D02*
X150201381Y-132381666D01*
X150201381Y-132000713D01*
X150249000Y-131905475D01*
X150296619Y-131857856D01*
X150391857Y-131810237D01*
X150534714Y-131810237D01*
X150629952Y-131857856D01*
X150677571Y-131905475D01*
X150725190Y-132000713D01*
X150725190Y-132381666D01*
X151201381Y-131238809D02*
X151153762Y-131334047D01*
X151058524Y-131381666D01*
X150201381Y-131381666D01*
X151153762Y-130476903D02*
X151201381Y-130572141D01*
X151201381Y-130762618D01*
X151153762Y-130857856D01*
X151058524Y-130905475D01*
X150677571Y-130905475D01*
X150582333Y-130857856D01*
X150534714Y-130762618D01*
X150534714Y-130572141D01*
X150582333Y-130476903D01*
X150677571Y-130429284D01*
X150772810Y-130429284D01*
X150868048Y-130905475D01*
X150534714Y-130143570D02*
X150534714Y-129762618D01*
X150201381Y-130000713D02*
X151058524Y-130000713D01*
X151153762Y-129953094D01*
X151201381Y-129857856D01*
X151201381Y-129762618D01*
X151201381Y-129429284D02*
X150534714Y-129429284D01*
X150201381Y-129429284D02*
X150249000Y-129476903D01*
X150296619Y-129429284D01*
X150249000Y-129381665D01*
X150201381Y-129429284D01*
X150296619Y-129429284D01*
X150534714Y-128953094D02*
X151201381Y-128953094D01*
X150629952Y-128953094D02*
X150582333Y-128905475D01*
X150534714Y-128810237D01*
X150534714Y-128667379D01*
X150582333Y-128572141D01*
X150677571Y-128524522D01*
X151201381Y-128524522D01*
X151153762Y-127619760D02*
X151201381Y-127714998D01*
X151201381Y-127905475D01*
X151153762Y-128000713D01*
X151106143Y-128048332D01*
X151010905Y-128095951D01*
X150725190Y-128095951D01*
X150629952Y-128048332D01*
X150582333Y-128000713D01*
X150534714Y-127905475D01*
X150534714Y-127714998D01*
X150582333Y-127619760D01*
X151201381Y-127191189D02*
X150201381Y-127191189D01*
X150820429Y-127095951D02*
X151201381Y-126810236D01*
X150534714Y-126810236D02*
X150915667Y-127191189D01*
X152284714Y-141286429D02*
X153094238Y-141286429D01*
X153189476Y-141334048D01*
X153237095Y-141381667D01*
X153284714Y-141476906D01*
X153284714Y-141619763D01*
X153237095Y-141715001D01*
X152903762Y-141286429D02*
X152951381Y-141381667D01*
X152951381Y-141572144D01*
X152903762Y-141667382D01*
X152856143Y-141715001D01*
X152760905Y-141762620D01*
X152475190Y-141762620D01*
X152379952Y-141715001D01*
X152332333Y-141667382D01*
X152284714Y-141572144D01*
X152284714Y-141381667D01*
X152332333Y-141286429D01*
X152951381Y-140810239D02*
X152284714Y-140810239D01*
X151951381Y-140810239D02*
X151999000Y-140857858D01*
X152046619Y-140810239D01*
X151999000Y-140762620D01*
X151951381Y-140810239D01*
X152046619Y-140810239D01*
X152284714Y-140476906D02*
X152284714Y-140095954D01*
X151951381Y-140334049D02*
X152808524Y-140334049D01*
X152903762Y-140286430D01*
X152951381Y-140191192D01*
X152951381Y-140095954D01*
X152951381Y-139762620D02*
X151951381Y-139762620D01*
X152951381Y-139334048D02*
X152427571Y-139334048D01*
X152332333Y-139381667D01*
X152284714Y-139476905D01*
X152284714Y-139619763D01*
X152332333Y-139715001D01*
X152379952Y-139762620D01*
X152284714Y-138429286D02*
X152951381Y-138429286D01*
X152284714Y-138857858D02*
X152808524Y-138857858D01*
X152903762Y-138810239D01*
X152951381Y-138715001D01*
X152951381Y-138572143D01*
X152903762Y-138476905D01*
X152856143Y-138429286D01*
X152951381Y-137953096D02*
X151951381Y-137953096D01*
X152332333Y-137953096D02*
X152284714Y-137857858D01*
X152284714Y-137667381D01*
X152332333Y-137572143D01*
X152379952Y-137524524D01*
X152475190Y-137476905D01*
X152760905Y-137476905D01*
X152856143Y-137524524D01*
X152903762Y-137572143D01*
X152951381Y-137667381D01*
X152951381Y-137857858D01*
X152903762Y-137953096D01*
X152856143Y-137048334D02*
X152903762Y-137000715D01*
X152951381Y-137048334D01*
X152903762Y-137095953D01*
X152856143Y-137048334D01*
X152951381Y-137048334D01*
X152903762Y-136143572D02*
X152951381Y-136238810D01*
X152951381Y-136429287D01*
X152903762Y-136524525D01*
X152856143Y-136572144D01*
X152760905Y-136619763D01*
X152475190Y-136619763D01*
X152379952Y-136572144D01*
X152332333Y-136524525D01*
X152284714Y-136429287D01*
X152284714Y-136238810D01*
X152332333Y-136143572D01*
X152951381Y-135572144D02*
X152903762Y-135667382D01*
X152856143Y-135715001D01*
X152760905Y-135762620D01*
X152475190Y-135762620D01*
X152379952Y-135715001D01*
X152332333Y-135667382D01*
X152284714Y-135572144D01*
X152284714Y-135429286D01*
X152332333Y-135334048D01*
X152379952Y-135286429D01*
X152475190Y-135238810D01*
X152760905Y-135238810D01*
X152856143Y-135286429D01*
X152903762Y-135334048D01*
X152951381Y-135429286D01*
X152951381Y-135572144D01*
X152951381Y-134810239D02*
X152284714Y-134810239D01*
X152379952Y-134810239D02*
X152332333Y-134762620D01*
X152284714Y-134667382D01*
X152284714Y-134524524D01*
X152332333Y-134429286D01*
X152427571Y-134381667D01*
X152951381Y-134381667D01*
X152427571Y-134381667D02*
X152332333Y-134334048D01*
X152284714Y-134238810D01*
X152284714Y-134095953D01*
X152332333Y-134000715D01*
X152427571Y-133953096D01*
X152951381Y-133953096D01*
X151903762Y-132762620D02*
X153189476Y-133619763D01*
X152427571Y-132429287D02*
X152427571Y-132095953D01*
X152951381Y-131953096D02*
X152951381Y-132429287D01*
X151951381Y-132429287D01*
X151951381Y-131953096D01*
X152284714Y-131524525D02*
X153284714Y-131524525D01*
X152332333Y-131524525D02*
X152284714Y-131429287D01*
X152284714Y-131238810D01*
X152332333Y-131143572D01*
X152379952Y-131095953D01*
X152475190Y-131048334D01*
X152760905Y-131048334D01*
X152856143Y-131095953D01*
X152903762Y-131143572D01*
X152951381Y-131238810D01*
X152951381Y-131429287D01*
X152903762Y-131524525D01*
X152903762Y-130667382D02*
X152951381Y-130572144D01*
X152951381Y-130381668D01*
X152903762Y-130286429D01*
X152808524Y-130238810D01*
X152760905Y-130238810D01*
X152665667Y-130286429D01*
X152618048Y-130381668D01*
X152618048Y-130524525D01*
X152570429Y-130619763D01*
X152475190Y-130667382D01*
X152427571Y-130667382D01*
X152332333Y-130619763D01*
X152284714Y-130524525D01*
X152284714Y-130381668D01*
X152332333Y-130286429D01*
X152903762Y-129429286D02*
X152951381Y-129524524D01*
X152951381Y-129715001D01*
X152903762Y-129810239D01*
X152808524Y-129857858D01*
X152427571Y-129857858D01*
X152332333Y-129810239D01*
X152284714Y-129715001D01*
X152284714Y-129524524D01*
X152332333Y-129429286D01*
X152427571Y-129381667D01*
X152522810Y-129381667D01*
X152618048Y-129857858D01*
X151903762Y-128238810D02*
X153189476Y-129095953D01*
X151951381Y-128000715D02*
X152951381Y-127762620D01*
X152237095Y-127572143D01*
X152951381Y-127381667D01*
X151951381Y-127143572D01*
X152951381Y-126334048D02*
X152427571Y-126334048D01*
X152332333Y-126381667D01*
X152284714Y-126476905D01*
X152284714Y-126667382D01*
X152332333Y-126762620D01*
X152903762Y-126334048D02*
X152951381Y-126429286D01*
X152951381Y-126667382D01*
X152903762Y-126762620D01*
X152808524Y-126810239D01*
X152713286Y-126810239D01*
X152618048Y-126762620D01*
X152570429Y-126667382D01*
X152570429Y-126429286D01*
X152522810Y-126334048D01*
X152951381Y-125715001D02*
X152903762Y-125810239D01*
X152808524Y-125857858D01*
X151951381Y-125857858D01*
X152951381Y-125191191D02*
X152903762Y-125286429D01*
X152808524Y-125334048D01*
X151951381Y-125334048D01*
X152903762Y-124857857D02*
X152951381Y-124762619D01*
X152951381Y-124572143D01*
X152903762Y-124476904D01*
X152808524Y-124429285D01*
X152760905Y-124429285D01*
X152665667Y-124476904D01*
X152618048Y-124572143D01*
X152618048Y-124715000D01*
X152570429Y-124810238D01*
X152475190Y-124857857D01*
X152427571Y-124857857D01*
X152332333Y-124810238D01*
X152284714Y-124715000D01*
X152284714Y-124572143D01*
X152332333Y-124476904D01*
X152284714Y-124095952D02*
X152951381Y-123857857D01*
X152284714Y-123619761D02*
X152951381Y-123857857D01*
X153189476Y-123953095D01*
X153237095Y-124000714D01*
X153284714Y-124095952D01*
D12*
X94615000Y-121920000D02*
X94615000Y-142240000D01*
X100457000Y-142240000D02*
X100457000Y-121920000D01*
X94615000Y-121920000D02*
X100457000Y-121920000D01*
X94615000Y-142240000D02*
X96520000Y-142240000D01*
X100457000Y-142240000D02*
X98552000Y-142240000D01*
X96520000Y-142240000D02*
G75*
G02X98552000Y-142240000I1016000J0D01*
G01*
D13*
X132080000Y-147200000D02*
X114180000Y-147200000D01*
X114180000Y-147200000D02*
X114180000Y-149980000D01*
X114180000Y-149980000D02*
X132080000Y-149980000D01*
X132080000Y-149980000D02*
X132080000Y-147200000D01*
X133350000Y-147200000D02*
X134740000Y-147200000D01*
X134740000Y-147200000D02*
X134740000Y-148590000D01*
X154820000Y-110490000D02*
X154820000Y-110610000D01*
X154820000Y-110610000D02*
X157600000Y-110610000D01*
X157600000Y-110610000D02*
X157600000Y-110490000D01*
X157600000Y-110490000D02*
X154820000Y-110490000D01*
X154820000Y-109220000D02*
X154820000Y-107830000D01*
X154820000Y-107830000D02*
X156210000Y-107830000D01*
X96050000Y-145990000D02*
X96580000Y-145990000D01*
X96580000Y-145990000D02*
X96580000Y-148650000D01*
X96580000Y-148650000D02*
X96050000Y-148650000D01*
X94450000Y-145990000D02*
X93920000Y-145990000D01*
X93920000Y-145990000D02*
X93920000Y-148650000D01*
X93920000Y-148650000D02*
X94450000Y-148650000D01*
X96580000Y-148650000D02*
X93920000Y-148650000D01*
X96050000Y-145990000D02*
X96050000Y-144320000D01*
X86240000Y-102870000D02*
X86240000Y-108070000D01*
X86240000Y-108070000D02*
X89020000Y-108070000D01*
X89020000Y-108070000D02*
X89020000Y-102870000D01*
X89020000Y-102870000D02*
X86240000Y-102870000D01*
X86240000Y-101600000D02*
X86240000Y-100210000D01*
X86240000Y-100210000D02*
X87630000Y-100210000D01*
X117640000Y-142180000D02*
X118170000Y-142180000D01*
X118170000Y-142180000D02*
X118170000Y-144840000D01*
X118170000Y-144840000D02*
X117640000Y-144840000D01*
X116040000Y-142180000D02*
X115510000Y-142180000D01*
X115510000Y-142180000D02*
X115510000Y-144840000D01*
X115510000Y-144840000D02*
X116040000Y-144840000D01*
X118170000Y-144840000D02*
X115510000Y-144840000D01*
X117640000Y-142180000D02*
X117640000Y-140510000D01*
X156090000Y-127000000D02*
X156090000Y-142360000D01*
X156090000Y-142360000D02*
X158870000Y-142360000D01*
X158870000Y-142360000D02*
X158870000Y-127000000D01*
X158870000Y-127000000D02*
X156090000Y-127000000D01*
X156090000Y-125730000D02*
X156090000Y-124340000D01*
X156090000Y-124340000D02*
X157480000Y-124340000D01*
X121920000Y-102990000D02*
X144900000Y-102990000D01*
X144900000Y-102990000D02*
X144900000Y-100210000D01*
X144900000Y-100210000D02*
X121920000Y-100210000D01*
X121920000Y-100210000D02*
X121920000Y-102990000D01*
X120650000Y-102990000D02*
X119260000Y-102990000D01*
X119260000Y-102990000D02*
X119260000Y-101600000D01*
D14*
X149860000Y-119380000D02*
X147320000Y-119380000D01*
X151279903Y-119380000D02*
G75*
G03X151279903Y-119380000I-1419903J0D01*
G01*
X135890000Y-110490000D02*
X135890000Y-113030000D01*
X137309903Y-110490000D02*
G75*
G03X137309903Y-110490000I-1419903J0D01*
G01*
X135890000Y-105410000D02*
X135890000Y-107950000D01*
X137309903Y-105410000D02*
G75*
G03X137309903Y-105410000I-1419903J0D01*
G01*
X130810000Y-138430000D02*
X128270000Y-138430000D01*
X132229903Y-138430000D02*
G75*
G03X132229903Y-138430000I-1419903J0D01*
G01*
X130810000Y-142240000D02*
X130810000Y-144780000D01*
X132229903Y-142240000D02*
G75*
G03X132229903Y-142240000I-1419903J0D01*
G01*
X143510000Y-113030000D02*
X143510000Y-110490000D01*
X144929903Y-113030000D02*
G75*
G03X144929903Y-113030000I-1419903J0D01*
G01*
X140970000Y-105410000D02*
X140970000Y-107950000D01*
X142389903Y-105410000D02*
G75*
G03X142389903Y-105410000I-1419903J0D01*
G01*
D13*
X111760000Y-100210000D02*
X109100000Y-100210000D01*
X109100000Y-100210000D02*
X109100000Y-102990000D01*
X109100000Y-102990000D02*
X111760000Y-102990000D01*
X111760000Y-102990000D02*
X111760000Y-100210000D01*
X113030000Y-100210000D02*
X114420000Y-100210000D01*
X114420000Y-100210000D02*
X114420000Y-101600000D01*
D14*
X109220000Y-130810000D02*
X107950000Y-130810000D01*
X107950000Y-130810000D02*
X107950000Y-123190000D01*
X107950000Y-123190000D02*
X109220000Y-123190000D01*
X120650000Y-132080000D02*
X124460000Y-132080000D01*
X124460000Y-132080000D02*
X124460000Y-129540000D01*
X124460000Y-129540000D02*
X120650000Y-129540000D01*
X120650000Y-129540000D02*
X120650000Y-132080000D01*
X114300000Y-130810000D02*
X114300000Y-123190000D01*
X114300000Y-123190000D02*
X109220000Y-123190000D01*
X114300000Y-130810000D02*
X109220000Y-130810000D01*
X115570000Y-132080000D02*
X118110000Y-132080000D01*
X118110000Y-132080000D02*
X118110000Y-129540000D01*
X118110000Y-129540000D02*
X115570000Y-129540000D01*
X115570000Y-129540000D02*
X115570000Y-132080000D01*
X142240000Y-124460000D02*
X142240000Y-129540000D01*
X142240000Y-129540000D02*
X139700000Y-129540000D01*
X139700000Y-129540000D02*
X139700000Y-124460000D01*
X139700000Y-124460000D02*
X142240000Y-124460000D01*
X135890000Y-132080000D02*
X135890000Y-121920000D01*
X127000000Y-121920000D02*
X127000000Y-132080000D01*
X135890000Y-121920000D02*
X127000000Y-121920000D01*
X135890000Y-132080000D02*
X127000000Y-132080000D01*
X109220000Y-118110000D02*
X144780000Y-118110000D01*
X144780000Y-118110000D02*
X144780000Y-135890000D01*
X144780000Y-135890000D02*
X109220000Y-135890000D01*
X109220000Y-135890000D02*
X109220000Y-118110000D01*
X112141000Y-115316000D02*
X108712000Y-115316000D01*
X112141000Y-105664000D02*
X108712000Y-105664000D01*
X113284000Y-115824000D02*
X113284000Y-105156000D01*
X112268000Y-112268000D02*
X113538000Y-112268000D01*
X112268000Y-108712000D02*
X113538000Y-108712000D01*
X112141000Y-105156000D02*
X112141000Y-115824000D01*
X108712000Y-115824000D02*
X108712000Y-105156000D01*
X113538000Y-105156000D02*
X108712000Y-105156000D01*
X113538000Y-115824000D02*
X108712000Y-115824000D01*
X113538000Y-115824000D02*
X113538000Y-105156000D01*
D13*
X103886000Y-147320000D02*
G75*
G03X103886000Y-147320000I-2286000J0D01*
G01*
X103886000Y-107188000D02*
G75*
G03X103886000Y-107188000I-2286000J0D01*
G01*
X159004000Y-147320000D02*
G75*
G03X159004000Y-147320000I-2286000J0D01*
G01*
X159004000Y-118110000D02*
G75*
G03X159004000Y-118110000I-2286000J0D01*
G01*
X90462000Y-146244000D02*
X90992000Y-146244000D01*
X90992000Y-146244000D02*
X90992000Y-148904000D01*
X90992000Y-148904000D02*
X90462000Y-148904000D01*
X88862000Y-146244000D02*
X88332000Y-146244000D01*
X88332000Y-146244000D02*
X88332000Y-148904000D01*
X88332000Y-148904000D02*
X88862000Y-148904000D01*
X90992000Y-148904000D02*
X88332000Y-148904000D01*
X90462000Y-146244000D02*
X90462000Y-144574000D01*
X110909000Y-145863000D02*
X111439000Y-145863000D01*
X111439000Y-145863000D02*
X111439000Y-148523000D01*
X111439000Y-148523000D02*
X110909000Y-148523000D01*
X109309000Y-145863000D02*
X108779000Y-145863000D01*
X108779000Y-145863000D02*
X108779000Y-148523000D01*
X108779000Y-148523000D02*
X109309000Y-148523000D01*
X111439000Y-148523000D02*
X108779000Y-148523000D01*
X110909000Y-145863000D02*
X110909000Y-144193000D01*
D15*
X96939672Y-143730545D02*
X96939672Y-142728635D01*
X97989292Y-143635125D02*
X97941582Y-143682835D01*
X97798452Y-143730545D01*
X97703032Y-143730545D01*
X97559902Y-143682835D01*
X97464482Y-143587415D01*
X97416772Y-143491995D01*
X97369062Y-143301155D01*
X97369062Y-143158025D01*
X97416772Y-142967185D01*
X97464482Y-142871765D01*
X97559902Y-142776345D01*
X97703032Y-142728635D01*
X97798452Y-142728635D01*
X97941582Y-142776345D01*
X97989292Y-142824055D01*
X98943492Y-143730545D02*
X98370972Y-143730545D01*
X98657232Y-143730545D02*
X98657232Y-142728635D01*
X98561812Y-142871765D01*
X98466392Y-142967185D01*
X98370972Y-143014895D01*
X97988942Y-138024426D02*
X97988942Y-138501207D01*
X96987702Y-138501207D01*
X97083058Y-137738357D02*
X97035380Y-137690679D01*
X96987702Y-137595322D01*
X96987702Y-137356932D01*
X97035380Y-137261576D01*
X97083058Y-137213898D01*
X97178414Y-137166219D01*
X97273770Y-137166219D01*
X97416805Y-137213898D01*
X97988942Y-137786035D01*
X97988942Y-137166219D01*
X97988942Y-136689438D02*
X97988942Y-136498726D01*
X97941264Y-136403370D01*
X97893586Y-136355692D01*
X97750551Y-136260336D01*
X97559839Y-136212657D01*
X97178414Y-136212657D01*
X97083058Y-136260336D01*
X97035380Y-136308014D01*
X96987702Y-136403370D01*
X96987702Y-136594082D01*
X97035380Y-136689438D01*
X97083058Y-136737117D01*
X97178414Y-136784795D01*
X97416805Y-136784795D01*
X97512161Y-136737117D01*
X97559839Y-136689438D01*
X97607517Y-136594082D01*
X97607517Y-136403370D01*
X97559839Y-136308014D01*
X97512161Y-136260336D01*
X97416805Y-136212657D01*
X96987702Y-135878911D02*
X96987702Y-135259095D01*
X97369127Y-135592842D01*
X97369127Y-135449808D01*
X97416805Y-135354452D01*
X97464483Y-135306774D01*
X97559839Y-135259095D01*
X97798230Y-135259095D01*
X97893586Y-135306774D01*
X97941264Y-135354452D01*
X97988942Y-135449808D01*
X97988942Y-135735876D01*
X97941264Y-135831233D01*
X97893586Y-135878911D01*
X97988942Y-134829993D02*
X96987702Y-134829993D01*
X96987702Y-134591602D01*
X97035380Y-134448568D01*
X97130736Y-134353212D01*
X97226092Y-134305533D01*
X97416805Y-134257855D01*
X97559839Y-134257855D01*
X97750551Y-134305533D01*
X97845908Y-134353212D01*
X97941264Y-134448568D01*
X97988942Y-134591602D01*
X97988942Y-134829993D01*
D14*
X135192381Y-148923333D02*
X135906667Y-148923333D01*
X136049524Y-148970953D01*
X136144762Y-149066191D01*
X136192381Y-149209048D01*
X136192381Y-149304286D01*
X136192381Y-147923333D02*
X136192381Y-148494762D01*
X136192381Y-148209048D02*
X135192381Y-148209048D01*
X135335238Y-148304286D01*
X135430476Y-148399524D01*
X135478095Y-148494762D01*
X155876667Y-106282381D02*
X155876667Y-106996667D01*
X155829047Y-107139524D01*
X155733809Y-107234762D01*
X155590952Y-107282381D01*
X155495714Y-107282381D01*
X156305238Y-106377619D02*
X156352857Y-106330000D01*
X156448095Y-106282381D01*
X156686191Y-106282381D01*
X156781429Y-106330000D01*
X156829048Y-106377619D01*
X156876667Y-106472857D01*
X156876667Y-106568095D01*
X156829048Y-106710952D01*
X156257619Y-107282381D01*
X156876667Y-107282381D01*
X153114762Y-111538571D02*
X152781428Y-111538571D01*
X152781428Y-112062381D02*
X152781428Y-111062381D01*
X153257619Y-111062381D01*
X153638571Y-112062381D02*
X153638571Y-111395714D01*
X153638571Y-111586190D02*
X153686190Y-111490952D01*
X153733809Y-111443333D01*
X153829047Y-111395714D01*
X153924286Y-111395714D01*
X154400476Y-112062381D02*
X154305238Y-112014762D01*
X154257619Y-111967143D01*
X154210000Y-111871905D01*
X154210000Y-111586190D01*
X154257619Y-111490952D01*
X154305238Y-111443333D01*
X154400476Y-111395714D01*
X154543334Y-111395714D01*
X154638572Y-111443333D01*
X154686191Y-111490952D01*
X154733810Y-111586190D01*
X154733810Y-111871905D01*
X154686191Y-111967143D01*
X154638572Y-112014762D01*
X154543334Y-112062381D01*
X154400476Y-112062381D01*
X155162381Y-111395714D02*
X155162381Y-112062381D01*
X155162381Y-111490952D02*
X155210000Y-111443333D01*
X155305238Y-111395714D01*
X155448096Y-111395714D01*
X155543334Y-111443333D01*
X155590953Y-111538571D01*
X155590953Y-112062381D01*
X155924286Y-111395714D02*
X156305238Y-111395714D01*
X156067143Y-111062381D02*
X156067143Y-111919524D01*
X156114762Y-112014762D01*
X156210000Y-112062381D01*
X156305238Y-112062381D01*
X156400477Y-112157619D02*
X157162382Y-112157619D01*
X157876668Y-112062381D02*
X157400477Y-112062381D01*
X157400477Y-111062381D01*
X158210001Y-111538571D02*
X158543335Y-111538571D01*
X158686192Y-112062381D02*
X158210001Y-112062381D01*
X158210001Y-111062381D01*
X158686192Y-111062381D01*
X159114763Y-112062381D02*
X159114763Y-111062381D01*
X159352858Y-111062381D01*
X159495716Y-111110000D01*
X159590954Y-111205238D01*
X159638573Y-111300476D01*
X159686192Y-111490952D01*
X159686192Y-111633810D01*
X159638573Y-111824286D01*
X159590954Y-111919524D01*
X159495716Y-112014762D01*
X159352858Y-112062381D01*
X159114763Y-112062381D01*
X93484819Y-143606781D02*
X93484819Y-142606781D01*
X93818153Y-143321067D01*
X94151486Y-142606781D01*
X94151486Y-143606781D01*
X94627676Y-143225829D02*
X95389581Y-143225829D01*
X95008629Y-143606781D02*
X95008629Y-142844876D01*
X87296667Y-98662381D02*
X87296667Y-99376667D01*
X87249047Y-99519524D01*
X87153809Y-99614762D01*
X87010952Y-99662381D01*
X86915714Y-99662381D01*
X88201429Y-98995714D02*
X88201429Y-99662381D01*
X87963333Y-98614762D02*
X87725238Y-99329048D01*
X88344286Y-99329048D01*
X87439524Y-108522381D02*
X86963333Y-108522381D01*
X86915714Y-108998571D01*
X86963333Y-108950952D01*
X87058571Y-108903333D01*
X87296667Y-108903333D01*
X87391905Y-108950952D01*
X87439524Y-108998571D01*
X87487143Y-109093810D01*
X87487143Y-109331905D01*
X87439524Y-109427143D01*
X87391905Y-109474762D01*
X87296667Y-109522381D01*
X87058571Y-109522381D01*
X86963333Y-109474762D01*
X86915714Y-109427143D01*
X87772857Y-108522381D02*
X88106190Y-109522381D01*
X88439524Y-108522381D01*
X119574762Y-146271905D02*
X119622381Y-146129048D01*
X119622381Y-145890952D01*
X119574762Y-145795714D01*
X119527143Y-145748095D01*
X119431905Y-145700476D01*
X119336667Y-145700476D01*
X119241429Y-145748095D01*
X119193810Y-145795714D01*
X119146190Y-145890952D01*
X119098571Y-146081429D01*
X119050952Y-146176667D01*
X119003333Y-146224286D01*
X118908095Y-146271905D01*
X118812857Y-146271905D01*
X118717619Y-146224286D01*
X118670000Y-146176667D01*
X118622381Y-146081429D01*
X118622381Y-145843333D01*
X118670000Y-145700476D01*
X118955714Y-145271905D02*
X119955714Y-145271905D01*
X119003333Y-145271905D02*
X118955714Y-145176667D01*
X118955714Y-144986190D01*
X119003333Y-144890952D01*
X119050952Y-144843333D01*
X119146190Y-144795714D01*
X119431905Y-144795714D01*
X119527143Y-144843333D01*
X119574762Y-144890952D01*
X119622381Y-144986190D01*
X119622381Y-145176667D01*
X119574762Y-145271905D01*
X119574762Y-143986190D02*
X119622381Y-144081428D01*
X119622381Y-144271905D01*
X119574762Y-144367143D01*
X119479524Y-144414762D01*
X119098571Y-144414762D01*
X119003333Y-144367143D01*
X118955714Y-144271905D01*
X118955714Y-144081428D01*
X119003333Y-143986190D01*
X119098571Y-143938571D01*
X119193810Y-143938571D01*
X119289048Y-144414762D01*
X119622381Y-143081428D02*
X119098571Y-143081428D01*
X119003333Y-143129047D01*
X118955714Y-143224285D01*
X118955714Y-143414762D01*
X119003333Y-143510000D01*
X119574762Y-143081428D02*
X119622381Y-143176666D01*
X119622381Y-143414762D01*
X119574762Y-143510000D01*
X119479524Y-143557619D01*
X119384286Y-143557619D01*
X119289048Y-143510000D01*
X119241429Y-143414762D01*
X119241429Y-143176666D01*
X119193810Y-143081428D01*
X119622381Y-142605238D02*
X118622381Y-142605238D01*
X119241429Y-142510000D02*
X119622381Y-142224285D01*
X118955714Y-142224285D02*
X119336667Y-142605238D01*
X119574762Y-141414761D02*
X119622381Y-141509999D01*
X119622381Y-141700476D01*
X119574762Y-141795714D01*
X119479524Y-141843333D01*
X119098571Y-141843333D01*
X119003333Y-141795714D01*
X118955714Y-141700476D01*
X118955714Y-141509999D01*
X119003333Y-141414761D01*
X119098571Y-141367142D01*
X119193810Y-141367142D01*
X119289048Y-141843333D01*
X119622381Y-140938571D02*
X118955714Y-140938571D01*
X119146190Y-140938571D02*
X119050952Y-140890952D01*
X119003333Y-140843333D01*
X118955714Y-140748095D01*
X118955714Y-140652856D01*
X157146667Y-122792381D02*
X157146667Y-123506667D01*
X157099047Y-123649524D01*
X157003809Y-123744762D01*
X156860952Y-123792381D01*
X156765714Y-123792381D01*
X158051429Y-122792381D02*
X157860952Y-122792381D01*
X157765714Y-122840000D01*
X157718095Y-122887619D01*
X157622857Y-123030476D01*
X157575238Y-123220952D01*
X157575238Y-123601905D01*
X157622857Y-123697143D01*
X157670476Y-123744762D01*
X157765714Y-123792381D01*
X157956191Y-123792381D01*
X158051429Y-123744762D01*
X158099048Y-123697143D01*
X158146667Y-123601905D01*
X158146667Y-123363810D01*
X158099048Y-123268571D01*
X158051429Y-123220952D01*
X157956191Y-123173333D01*
X157765714Y-123173333D01*
X157670476Y-123220952D01*
X157622857Y-123268571D01*
X157575238Y-123363810D01*
X154440000Y-140461904D02*
X154392381Y-140557142D01*
X154392381Y-140699999D01*
X154440000Y-140842857D01*
X154535238Y-140938095D01*
X154630476Y-140985714D01*
X154820952Y-141033333D01*
X154963810Y-141033333D01*
X155154286Y-140985714D01*
X155249524Y-140938095D01*
X155344762Y-140842857D01*
X155392381Y-140699999D01*
X155392381Y-140604761D01*
X155344762Y-140461904D01*
X155297143Y-140414285D01*
X154963810Y-140414285D01*
X154963810Y-140604761D01*
X155392381Y-139985714D02*
X154392381Y-139985714D01*
X155392381Y-139414285D01*
X154392381Y-139414285D01*
X155392381Y-138938095D02*
X154392381Y-138938095D01*
X154392381Y-138700000D01*
X154440000Y-138557142D01*
X154535238Y-138461904D01*
X154630476Y-138414285D01*
X154820952Y-138366666D01*
X154963810Y-138366666D01*
X155154286Y-138414285D01*
X155249524Y-138461904D01*
X155344762Y-138557142D01*
X155392381Y-138700000D01*
X155392381Y-138938095D01*
X117712381Y-101933333D02*
X118426667Y-101933333D01*
X118569524Y-101980953D01*
X118664762Y-102076191D01*
X118712381Y-102219048D01*
X118712381Y-102314286D01*
X117712381Y-101552381D02*
X117712381Y-100885714D01*
X118712381Y-101314286D01*
X148994905Y-116292381D02*
X149613953Y-116292381D01*
X149280619Y-116673333D01*
X149423477Y-116673333D01*
X149518715Y-116720952D01*
X149566334Y-116768571D01*
X149613953Y-116863810D01*
X149613953Y-117101905D01*
X149566334Y-117197143D01*
X149518715Y-117244762D01*
X149423477Y-117292381D01*
X149137762Y-117292381D01*
X149042524Y-117244762D01*
X148994905Y-117197143D01*
X150042524Y-117292381D02*
X150042524Y-116292381D01*
X150137762Y-116911429D02*
X150423477Y-117292381D01*
X150423477Y-116625714D02*
X150042524Y-117006667D01*
X132802381Y-111831286D02*
X132802381Y-111212238D01*
X133183333Y-111545572D01*
X133183333Y-111402714D01*
X133230952Y-111307476D01*
X133278571Y-111259857D01*
X133373810Y-111212238D01*
X133611905Y-111212238D01*
X133707143Y-111259857D01*
X133754762Y-111307476D01*
X133802381Y-111402714D01*
X133802381Y-111688429D01*
X133754762Y-111783667D01*
X133707143Y-111831286D01*
X133802381Y-110783667D02*
X132802381Y-110783667D01*
X133421429Y-110688429D02*
X133802381Y-110402714D01*
X133135714Y-110402714D02*
X133516667Y-110783667D01*
X132802381Y-110069381D02*
X132802381Y-109450333D01*
X133183333Y-109783667D01*
X133183333Y-109640809D01*
X133230952Y-109545571D01*
X133278571Y-109497952D01*
X133373810Y-109450333D01*
X133611905Y-109450333D01*
X133707143Y-109497952D01*
X133754762Y-109545571D01*
X133802381Y-109640809D01*
X133802381Y-109926524D01*
X133754762Y-110021762D01*
X133707143Y-110069381D01*
X132897619Y-106703667D02*
X132850000Y-106656048D01*
X132802381Y-106560810D01*
X132802381Y-106322714D01*
X132850000Y-106227476D01*
X132897619Y-106179857D01*
X132992857Y-106132238D01*
X133088095Y-106132238D01*
X133230952Y-106179857D01*
X133802381Y-106751286D01*
X133802381Y-106132238D01*
X133802381Y-105703667D02*
X132802381Y-105703667D01*
X133421429Y-105608429D02*
X133802381Y-105322714D01*
X133135714Y-105322714D02*
X133516667Y-105703667D01*
X132897619Y-104941762D02*
X132850000Y-104894143D01*
X132802381Y-104798905D01*
X132802381Y-104560809D01*
X132850000Y-104465571D01*
X132897619Y-104417952D01*
X132992857Y-104370333D01*
X133088095Y-104370333D01*
X133230952Y-104417952D01*
X133802381Y-104989381D01*
X133802381Y-104370333D01*
X133453333Y-137977619D02*
X133500952Y-137930000D01*
X133596190Y-137882381D01*
X133834286Y-137882381D01*
X133929524Y-137930000D01*
X133977143Y-137977619D01*
X134024762Y-138072857D01*
X134024762Y-138168095D01*
X133977143Y-138310952D01*
X133405714Y-138882381D01*
X134024762Y-138882381D01*
X134453333Y-138882381D02*
X134453333Y-137882381D01*
X134548571Y-138501429D02*
X134834286Y-138882381D01*
X134834286Y-138215714D02*
X134453333Y-138596667D01*
X135215238Y-137977619D02*
X135262857Y-137930000D01*
X135358095Y-137882381D01*
X135596191Y-137882381D01*
X135691429Y-137930000D01*
X135739048Y-137977619D01*
X135786667Y-138072857D01*
X135786667Y-138168095D01*
X135739048Y-138310952D01*
X135167619Y-138882381D01*
X135786667Y-138882381D01*
X127722381Y-143581286D02*
X127722381Y-142962238D01*
X128103333Y-143295572D01*
X128103333Y-143152714D01*
X128150952Y-143057476D01*
X128198571Y-143009857D01*
X128293810Y-142962238D01*
X128531905Y-142962238D01*
X128627143Y-143009857D01*
X128674762Y-143057476D01*
X128722381Y-143152714D01*
X128722381Y-143438429D01*
X128674762Y-143533667D01*
X128627143Y-143581286D01*
X128722381Y-142533667D02*
X127722381Y-142533667D01*
X128341429Y-142438429D02*
X128722381Y-142152714D01*
X128055714Y-142152714D02*
X128436667Y-142533667D01*
X127722381Y-141819381D02*
X127722381Y-141200333D01*
X128103333Y-141533667D01*
X128103333Y-141390809D01*
X128150952Y-141295571D01*
X128198571Y-141247952D01*
X128293810Y-141200333D01*
X128531905Y-141200333D01*
X128627143Y-141247952D01*
X128674762Y-141295571D01*
X128722381Y-141390809D01*
X128722381Y-141676524D01*
X128674762Y-141771762D01*
X128627143Y-141819381D01*
X145502381Y-114117286D02*
X145502381Y-113498238D01*
X145883333Y-113831572D01*
X145883333Y-113688714D01*
X145930952Y-113593476D01*
X145978571Y-113545857D01*
X146073810Y-113498238D01*
X146311905Y-113498238D01*
X146407143Y-113545857D01*
X146454762Y-113593476D01*
X146502381Y-113688714D01*
X146502381Y-113974429D01*
X146454762Y-114069667D01*
X146407143Y-114117286D01*
X146502381Y-113069667D02*
X145502381Y-113069667D01*
X146121429Y-112974429D02*
X146502381Y-112688714D01*
X145835714Y-112688714D02*
X146216667Y-113069667D01*
X145502381Y-112355381D02*
X145502381Y-111736333D01*
X145883333Y-112069667D01*
X145883333Y-111926809D01*
X145930952Y-111831571D01*
X145978571Y-111783952D01*
X146073810Y-111736333D01*
X146311905Y-111736333D01*
X146407143Y-111783952D01*
X146454762Y-111831571D01*
X146502381Y-111926809D01*
X146502381Y-112212524D01*
X146454762Y-112307762D01*
X146407143Y-112355381D01*
X137263333Y-104957619D02*
X137310952Y-104910000D01*
X137406190Y-104862381D01*
X137644286Y-104862381D01*
X137739524Y-104910000D01*
X137787143Y-104957619D01*
X137834762Y-105052857D01*
X137834762Y-105148095D01*
X137787143Y-105290952D01*
X137215714Y-105862381D01*
X137834762Y-105862381D01*
X138263333Y-105862381D02*
X138263333Y-104862381D01*
X138358571Y-105481429D02*
X138644286Y-105862381D01*
X138644286Y-105195714D02*
X138263333Y-105576667D01*
X139025238Y-104957619D02*
X139072857Y-104910000D01*
X139168095Y-104862381D01*
X139406191Y-104862381D01*
X139501429Y-104910000D01*
X139549048Y-104957619D01*
X139596667Y-105052857D01*
X139596667Y-105148095D01*
X139549048Y-105290952D01*
X138977619Y-105862381D01*
X139596667Y-105862381D01*
X115824762Y-102933333D02*
X115872381Y-102790476D01*
X115872381Y-102552380D01*
X115824762Y-102457142D01*
X115777143Y-102409523D01*
X115681905Y-102361904D01*
X115586667Y-102361904D01*
X115491429Y-102409523D01*
X115443810Y-102457142D01*
X115396190Y-102552380D01*
X115348571Y-102742857D01*
X115300952Y-102838095D01*
X115253333Y-102885714D01*
X115158095Y-102933333D01*
X115062857Y-102933333D01*
X114967619Y-102885714D01*
X114920000Y-102838095D01*
X114872381Y-102742857D01*
X114872381Y-102504761D01*
X114920000Y-102361904D01*
X114872381Y-102028571D02*
X115872381Y-101790476D01*
X115158095Y-101599999D01*
X115872381Y-101409523D01*
X114872381Y-101171428D01*
X115872381Y-100266666D02*
X115872381Y-100838095D01*
X115872381Y-100552381D02*
X114872381Y-100552381D01*
X115015238Y-100647619D01*
X115110476Y-100742857D01*
X115158095Y-100838095D01*
X126238095Y-116292381D02*
X126238095Y-117101905D01*
X126285714Y-117197143D01*
X126333333Y-117244762D01*
X126428571Y-117292381D01*
X126619048Y-117292381D01*
X126714286Y-117244762D01*
X126761905Y-117197143D01*
X126809524Y-117101905D01*
X126809524Y-116292381D01*
X127809524Y-117292381D02*
X127238095Y-117292381D01*
X127523809Y-117292381D02*
X127523809Y-116292381D01*
X127428571Y-116435238D01*
X127333333Y-116530476D01*
X127238095Y-116578095D01*
X114260381Y-112251905D02*
X114260381Y-111585238D01*
X115260381Y-112013810D01*
X114688952Y-111061429D02*
X114641333Y-111156667D01*
X114593714Y-111204286D01*
X114498476Y-111251905D01*
X114450857Y-111251905D01*
X114355619Y-111204286D01*
X114308000Y-111156667D01*
X114260381Y-111061429D01*
X114260381Y-110870952D01*
X114308000Y-110775714D01*
X114355619Y-110728095D01*
X114450857Y-110680476D01*
X114498476Y-110680476D01*
X114593714Y-110728095D01*
X114641333Y-110775714D01*
X114688952Y-110870952D01*
X114688952Y-111061429D01*
X114736571Y-111156667D01*
X114784190Y-111204286D01*
X114879429Y-111251905D01*
X115069905Y-111251905D01*
X115165143Y-111204286D01*
X115212762Y-111156667D01*
X115260381Y-111061429D01*
X115260381Y-110870952D01*
X115212762Y-110775714D01*
X115165143Y-110728095D01*
X115069905Y-110680476D01*
X114879429Y-110680476D01*
X114784190Y-110728095D01*
X114736571Y-110775714D01*
X114688952Y-110870952D01*
X114260381Y-110061429D02*
X114260381Y-109966190D01*
X114308000Y-109870952D01*
X114355619Y-109823333D01*
X114450857Y-109775714D01*
X114641333Y-109728095D01*
X114879429Y-109728095D01*
X115069905Y-109775714D01*
X115165143Y-109823333D01*
X115212762Y-109870952D01*
X115260381Y-109966190D01*
X115260381Y-110061429D01*
X115212762Y-110156667D01*
X115165143Y-110204286D01*
X115069905Y-110251905D01*
X114879429Y-110299524D01*
X114641333Y-110299524D01*
X114450857Y-110251905D01*
X114355619Y-110204286D01*
X114308000Y-110156667D01*
X114260381Y-110061429D01*
X114260381Y-108823333D02*
X114260381Y-109299524D01*
X114736571Y-109347143D01*
X114688952Y-109299524D01*
X114641333Y-109204286D01*
X114641333Y-108966190D01*
X114688952Y-108870952D01*
X114736571Y-108823333D01*
X114831810Y-108775714D01*
X115069905Y-108775714D01*
X115165143Y-108823333D01*
X115212762Y-108870952D01*
X115260381Y-108966190D01*
X115260381Y-109204286D01*
X115212762Y-109299524D01*
X115165143Y-109347143D01*
X87574381Y-148391096D02*
X86574381Y-148391096D01*
X87288667Y-148057762D01*
X86574381Y-147724429D01*
X87574381Y-147724429D01*
X87574381Y-147105382D02*
X87526762Y-147200620D01*
X87479143Y-147248239D01*
X87383905Y-147295858D01*
X87098190Y-147295858D01*
X87002952Y-147248239D01*
X86955333Y-147200620D01*
X86907714Y-147105382D01*
X86907714Y-146962524D01*
X86955333Y-146867286D01*
X87002952Y-146819667D01*
X87098190Y-146772048D01*
X87383905Y-146772048D01*
X87479143Y-146819667D01*
X87526762Y-146867286D01*
X87574381Y-146962524D01*
X87574381Y-147105382D01*
X86907714Y-146486334D02*
X86907714Y-146105382D01*
X86574381Y-146343477D02*
X87431524Y-146343477D01*
X87526762Y-146295858D01*
X87574381Y-146200620D01*
X87574381Y-146105382D01*
X87574381Y-145629191D02*
X87526762Y-145724429D01*
X87479143Y-145772048D01*
X87383905Y-145819667D01*
X87098190Y-145819667D01*
X87002952Y-145772048D01*
X86955333Y-145724429D01*
X86907714Y-145629191D01*
X86907714Y-145486333D01*
X86955333Y-145391095D01*
X87002952Y-145343476D01*
X87098190Y-145295857D01*
X87383905Y-145295857D01*
X87479143Y-145343476D01*
X87526762Y-145391095D01*
X87574381Y-145486333D01*
X87574381Y-145629191D01*
X87574381Y-144867286D02*
X86907714Y-144867286D01*
X87098190Y-144867286D02*
X87002952Y-144819667D01*
X86955333Y-144772048D01*
X86907714Y-144676810D01*
X86907714Y-144581571D01*
X87669619Y-144486333D02*
X87669619Y-143724428D01*
X86622000Y-142962523D02*
X86574381Y-143057761D01*
X86574381Y-143200618D01*
X86622000Y-143343476D01*
X86717238Y-143438714D01*
X86812476Y-143486333D01*
X87002952Y-143533952D01*
X87145810Y-143533952D01*
X87336286Y-143486333D01*
X87431524Y-143438714D01*
X87526762Y-143343476D01*
X87574381Y-143200618D01*
X87574381Y-143105380D01*
X87526762Y-142962523D01*
X87479143Y-142914904D01*
X87145810Y-142914904D01*
X87145810Y-143105380D01*
X87574381Y-142486333D02*
X86574381Y-142486333D01*
X87574381Y-141914904D01*
X86574381Y-141914904D01*
X87574381Y-141438714D02*
X86574381Y-141438714D01*
X86574381Y-141200619D01*
X86622000Y-141057761D01*
X86717238Y-140962523D01*
X86812476Y-140914904D01*
X87002952Y-140867285D01*
X87145810Y-140867285D01*
X87336286Y-140914904D01*
X87431524Y-140962523D01*
X87526762Y-141057761D01*
X87574381Y-141200619D01*
X87574381Y-141438714D01*
X108227762Y-149613476D02*
X108275381Y-149470619D01*
X108275381Y-149232523D01*
X108227762Y-149137285D01*
X108180143Y-149089666D01*
X108084905Y-149042047D01*
X107989667Y-149042047D01*
X107894429Y-149089666D01*
X107846810Y-149137285D01*
X107799190Y-149232523D01*
X107751571Y-149423000D01*
X107703952Y-149518238D01*
X107656333Y-149565857D01*
X107561095Y-149613476D01*
X107465857Y-149613476D01*
X107370619Y-149565857D01*
X107323000Y-149518238D01*
X107275381Y-149423000D01*
X107275381Y-149184904D01*
X107323000Y-149042047D01*
X108275381Y-148613476D02*
X107275381Y-148613476D01*
X107275381Y-148232523D01*
X107323000Y-148137285D01*
X107370619Y-148089666D01*
X107465857Y-148042047D01*
X107608714Y-148042047D01*
X107703952Y-148089666D01*
X107751571Y-148137285D01*
X107799190Y-148232523D01*
X107799190Y-148613476D01*
X108275381Y-147613476D02*
X107275381Y-147613476D01*
X108275381Y-147042047D02*
X107703952Y-147470619D01*
X107275381Y-147042047D02*
X107846810Y-147613476D01*
X108275381Y-146042047D02*
X107799190Y-146375381D01*
X108275381Y-146613476D02*
X107275381Y-146613476D01*
X107275381Y-146232523D01*
X107323000Y-146137285D01*
X107370619Y-146089666D01*
X107465857Y-146042047D01*
X107608714Y-146042047D01*
X107703952Y-146089666D01*
X107751571Y-146137285D01*
X107799190Y-146232523D01*
X107799190Y-146613476D01*
X108370619Y-145851571D02*
X108370619Y-145089666D01*
X107323000Y-144327761D02*
X107275381Y-144422999D01*
X107275381Y-144565856D01*
X107323000Y-144708714D01*
X107418238Y-144803952D01*
X107513476Y-144851571D01*
X107703952Y-144899190D01*
X107846810Y-144899190D01*
X108037286Y-144851571D01*
X108132524Y-144803952D01*
X108227762Y-144708714D01*
X108275381Y-144565856D01*
X108275381Y-144470618D01*
X108227762Y-144327761D01*
X108180143Y-144280142D01*
X107846810Y-144280142D01*
X107846810Y-144470618D01*
X108275381Y-143851571D02*
X107275381Y-143851571D01*
X108275381Y-143280142D01*
X107275381Y-143280142D01*
X108275381Y-142803952D02*
X107275381Y-142803952D01*
X107275381Y-142565857D01*
X107323000Y-142422999D01*
X107418238Y-142327761D01*
X107513476Y-142280142D01*
X107703952Y-142232523D01*
X107846810Y-142232523D01*
X108037286Y-142280142D01*
X108132524Y-142327761D01*
X108227762Y-142422999D01*
X108275381Y-142565857D01*
X108275381Y-142803952D01*
M02*
