G04 #@! TF.FileFunction,Soldermask,Bot*
%FSLAX46Y46*%
G04 Gerber Fmt 4.6, Leading zero omitted, Abs format (unit mm)*
G04 Created by KiCad (PCBNEW 4.0.6) date Wed Sep 27 08:45:41 2017*
%MOMM*%
%LPD*%
G01*
G04 APERTURE LIST*
%ADD10C,0.100000*%
%ADD11O,2.641600X1.320800*%
%ADD12R,1.700000X1.700000*%
%ADD13O,1.700000X1.700000*%
%ADD14C,1.397000*%
%ADD15C,1.600000*%
%ADD16R,1.600000X1.600000*%
%ADD17O,2.540000X2.032000*%
%ADD18C,8.500000*%
G04 APERTURE END LIST*
D10*
D11*
X101346000Y-140970000D03*
X101346000Y-138430000D03*
X101346000Y-125730000D03*
X101346000Y-123190000D03*
X101346000Y-135890000D03*
X101346000Y-133350000D03*
X101346000Y-128270000D03*
X101346000Y-130810000D03*
X93726000Y-123190000D03*
X93726000Y-125730000D03*
X93726000Y-128270000D03*
X93726000Y-130810000D03*
X93726000Y-133350000D03*
X93726000Y-135890000D03*
X93726000Y-138430000D03*
X93726000Y-140970000D03*
D12*
X133350000Y-148590000D03*
D13*
X130810000Y-148590000D03*
X128270000Y-148590000D03*
X125730000Y-148590000D03*
X123190000Y-148590000D03*
X120650000Y-148590000D03*
X118110000Y-148590000D03*
X115570000Y-148590000D03*
D12*
X156210000Y-109220000D03*
X87630000Y-101600000D03*
D13*
X87630000Y-104140000D03*
X87630000Y-106680000D03*
D12*
X157480000Y-125730000D03*
D13*
X157480000Y-128270000D03*
X157480000Y-130810000D03*
X157480000Y-133350000D03*
X157480000Y-135890000D03*
X157480000Y-138430000D03*
X157480000Y-140970000D03*
D12*
X120650000Y-101600000D03*
D13*
X123190000Y-101600000D03*
X125730000Y-101600000D03*
X128270000Y-101600000D03*
X130810000Y-101600000D03*
X133350000Y-101600000D03*
X135890000Y-101600000D03*
X138430000Y-101600000D03*
X140970000Y-101600000D03*
X143510000Y-101600000D03*
D14*
X149860000Y-119380000D03*
X147320000Y-119380000D03*
X135890000Y-110490000D03*
X135890000Y-113030000D03*
X135890000Y-105410000D03*
X135890000Y-107950000D03*
X130810000Y-138430000D03*
X128270000Y-138430000D03*
X130810000Y-142240000D03*
X130810000Y-144780000D03*
X143510000Y-113030000D03*
X143510000Y-110490000D03*
X140970000Y-105410000D03*
X140970000Y-107950000D03*
D12*
X113030000Y-101600000D03*
D13*
X110490000Y-101600000D03*
D15*
X143510000Y-127000000D03*
X143510000Y-124460000D03*
X143510000Y-121920000D03*
X143510000Y-119380000D03*
X143510000Y-129540000D03*
X143510000Y-132080000D03*
X143510000Y-134620000D03*
X140970000Y-119380000D03*
X138430000Y-119380000D03*
X135890000Y-119380000D03*
X133350000Y-119380000D03*
X130810000Y-119380000D03*
X128270000Y-119380000D03*
X125730000Y-119380000D03*
X123190000Y-119380000D03*
X120650000Y-119380000D03*
X118110000Y-119380000D03*
X115570000Y-119380000D03*
X113030000Y-119380000D03*
X110490000Y-119380000D03*
X113030000Y-121920000D03*
X118110000Y-121920000D03*
X120650000Y-121920000D03*
X123190000Y-121920000D03*
X140970000Y-134620000D03*
X138430000Y-134620000D03*
X135890000Y-134620000D03*
X133350000Y-134620000D03*
X130810000Y-134620000D03*
X128270000Y-134620000D03*
X125730000Y-134620000D03*
X123190000Y-134620000D03*
X120650000Y-134620000D03*
X118110000Y-134620000D03*
X115570000Y-134620000D03*
X113030000Y-134620000D03*
D16*
X110490000Y-134620000D03*
D15*
X125730000Y-127000000D03*
X128270000Y-127000000D03*
X130810000Y-127000000D03*
X133350000Y-127000000D03*
X135890000Y-127000000D03*
X138430000Y-127000000D03*
X140970000Y-127000000D03*
X140970000Y-124460000D03*
X138430000Y-124460000D03*
X135890000Y-124460000D03*
X133350000Y-124460000D03*
X130810000Y-124460000D03*
X128270000Y-124460000D03*
X125730000Y-124460000D03*
D17*
X110490000Y-110490000D03*
X110490000Y-113030000D03*
X110490000Y-107950000D03*
D18*
X101600000Y-147320000D03*
X101600000Y-107188000D03*
X156718000Y-147320000D03*
X156718000Y-118110000D03*
M02*
