G04 #@! TF.FileFunction,Copper,L2,Bot,Signal*
%FSLAX46Y46*%
G04 Gerber Fmt 4.6, Leading zero omitted, Abs format (unit mm)*
G04 Created by KiCad (PCBNEW 4.0.6) date Wed Sep 27 08:45:41 2017*
%MOMM*%
%LPD*%
G01*
G04 APERTURE LIST*
%ADD10C,0.100000*%
%ADD11O,2.641600X1.320800*%
%ADD12R,1.700000X1.700000*%
%ADD13O,1.700000X1.700000*%
%ADD14C,1.397000*%
%ADD15C,1.600000*%
%ADD16R,1.600000X1.600000*%
%ADD17O,2.540000X2.032000*%
%ADD18C,8.500000*%
%ADD19C,1.200000*%
%ADD20C,0.600000*%
%ADD21C,1.200000*%
%ADD22C,0.254000*%
G04 APERTURE END LIST*
D10*
D11*
X101346000Y-140970000D03*
X101346000Y-138430000D03*
X101346000Y-125730000D03*
X101346000Y-123190000D03*
X101346000Y-135890000D03*
X101346000Y-133350000D03*
X101346000Y-128270000D03*
X101346000Y-130810000D03*
X93726000Y-123190000D03*
X93726000Y-125730000D03*
X93726000Y-128270000D03*
X93726000Y-130810000D03*
X93726000Y-133350000D03*
X93726000Y-135890000D03*
X93726000Y-138430000D03*
X93726000Y-140970000D03*
D12*
X133350000Y-148590000D03*
D13*
X130810000Y-148590000D03*
X128270000Y-148590000D03*
X125730000Y-148590000D03*
X123190000Y-148590000D03*
X120650000Y-148590000D03*
X118110000Y-148590000D03*
X115570000Y-148590000D03*
D12*
X156210000Y-109220000D03*
X87630000Y-101600000D03*
D13*
X87630000Y-104140000D03*
X87630000Y-106680000D03*
D12*
X157480000Y-125730000D03*
D13*
X157480000Y-128270000D03*
X157480000Y-130810000D03*
X157480000Y-133350000D03*
X157480000Y-135890000D03*
X157480000Y-138430000D03*
X157480000Y-140970000D03*
D12*
X120650000Y-101600000D03*
D13*
X123190000Y-101600000D03*
X125730000Y-101600000D03*
X128270000Y-101600000D03*
X130810000Y-101600000D03*
X133350000Y-101600000D03*
X135890000Y-101600000D03*
X138430000Y-101600000D03*
X140970000Y-101600000D03*
X143510000Y-101600000D03*
D14*
X149860000Y-119380000D03*
X147320000Y-119380000D03*
X135890000Y-110490000D03*
X135890000Y-113030000D03*
X135890000Y-105410000D03*
X135890000Y-107950000D03*
X130810000Y-138430000D03*
X128270000Y-138430000D03*
X130810000Y-142240000D03*
X130810000Y-144780000D03*
X143510000Y-113030000D03*
X143510000Y-110490000D03*
X140970000Y-105410000D03*
X140970000Y-107950000D03*
D12*
X113030000Y-101600000D03*
D13*
X110490000Y-101600000D03*
D15*
X143510000Y-127000000D03*
X143510000Y-124460000D03*
X143510000Y-121920000D03*
X143510000Y-119380000D03*
X143510000Y-129540000D03*
X143510000Y-132080000D03*
X143510000Y-134620000D03*
X140970000Y-119380000D03*
X138430000Y-119380000D03*
X135890000Y-119380000D03*
X133350000Y-119380000D03*
X130810000Y-119380000D03*
X128270000Y-119380000D03*
X125730000Y-119380000D03*
X123190000Y-119380000D03*
X120650000Y-119380000D03*
X118110000Y-119380000D03*
X115570000Y-119380000D03*
X113030000Y-119380000D03*
X110490000Y-119380000D03*
X113030000Y-121920000D03*
X118110000Y-121920000D03*
X120650000Y-121920000D03*
X123190000Y-121920000D03*
X140970000Y-134620000D03*
X138430000Y-134620000D03*
X135890000Y-134620000D03*
X133350000Y-134620000D03*
X130810000Y-134620000D03*
X128270000Y-134620000D03*
X125730000Y-134620000D03*
X123190000Y-134620000D03*
X120650000Y-134620000D03*
X118110000Y-134620000D03*
X115570000Y-134620000D03*
X113030000Y-134620000D03*
D16*
X110490000Y-134620000D03*
D15*
X125730000Y-127000000D03*
X128270000Y-127000000D03*
X130810000Y-127000000D03*
X133350000Y-127000000D03*
X135890000Y-127000000D03*
X138430000Y-127000000D03*
X140970000Y-127000000D03*
X140970000Y-124460000D03*
X138430000Y-124460000D03*
X135890000Y-124460000D03*
X133350000Y-124460000D03*
X130810000Y-124460000D03*
X128270000Y-124460000D03*
X125730000Y-124460000D03*
D17*
X110490000Y-110490000D03*
X110490000Y-113030000D03*
X110490000Y-107950000D03*
D18*
X101600000Y-147320000D03*
X101600000Y-107188000D03*
X156718000Y-147320000D03*
X156718000Y-118110000D03*
D19*
X104140000Y-127000000D03*
X104140000Y-129540000D03*
D20*
X135890000Y-119380000D02*
X135890000Y-121920000D01*
X105410000Y-138430000D02*
X101346000Y-138430000D01*
X105410000Y-129540000D02*
X105410000Y-138430000D01*
X118110000Y-129540000D02*
X105410000Y-129540000D01*
X125730000Y-121920000D02*
X118110000Y-129540000D01*
X135890000Y-121920000D02*
X125730000Y-121920000D01*
D21*
X123190000Y-101600000D02*
X123190000Y-104140000D01*
X101346000Y-117729000D02*
X101346000Y-123190000D01*
X101600000Y-117475000D02*
X101346000Y-117729000D01*
X95885000Y-117475000D02*
X101600000Y-117475000D01*
X95250000Y-116840000D02*
X95885000Y-117475000D01*
X95250000Y-101600000D02*
X95250000Y-116840000D01*
X107315000Y-101600000D02*
X95250000Y-101600000D01*
X107315000Y-104140000D02*
X107315000Y-101600000D01*
X123190000Y-104140000D02*
X107315000Y-104140000D01*
D20*
X125730000Y-115570000D02*
X125730000Y-101600000D01*
X104140000Y-115570000D02*
X125730000Y-115570000D01*
X104140000Y-127000000D02*
X104140000Y-115570000D01*
X128270000Y-116840000D02*
X128270000Y-101600000D01*
X107315000Y-116840000D02*
X128270000Y-116840000D01*
X106680000Y-117475000D02*
X107315000Y-116840000D01*
X106680000Y-127000000D02*
X106680000Y-117475000D01*
X104140000Y-129540000D02*
X106680000Y-127000000D01*
D22*
G36*
X160351000Y-114834877D02*
X159488743Y-113971113D01*
X157693950Y-113225850D01*
X155750576Y-113224154D01*
X153954485Y-113966284D01*
X152579113Y-115339257D01*
X151833850Y-117134050D01*
X151832154Y-119077424D01*
X152574284Y-120873515D01*
X153947257Y-122248887D01*
X155742050Y-122994150D01*
X157685424Y-122995846D01*
X159481515Y-122253716D01*
X160351000Y-121385748D01*
X160351000Y-144044877D01*
X159488743Y-143181113D01*
X157693950Y-142435850D01*
X157607002Y-142435774D01*
X157607002Y-142290820D01*
X157836892Y-142411486D01*
X158361358Y-142165183D01*
X158751645Y-141736924D01*
X158921476Y-141326890D01*
X158800155Y-141097000D01*
X157607000Y-141097000D01*
X157607000Y-141117000D01*
X157353000Y-141117000D01*
X157353000Y-141097000D01*
X156159845Y-141097000D01*
X156038524Y-141326890D01*
X156208355Y-141736924D01*
X156598642Y-142165183D01*
X157123108Y-142411486D01*
X157352998Y-142290820D01*
X157352998Y-142435552D01*
X155750576Y-142434154D01*
X153954485Y-143176284D01*
X152579113Y-144549257D01*
X151833850Y-146344050D01*
X151832154Y-148287424D01*
X152574284Y-150083515D01*
X152935138Y-150445000D01*
X105384011Y-150445000D01*
X105738887Y-150090743D01*
X106213855Y-148946892D01*
X114128514Y-148946892D01*
X114374817Y-149471358D01*
X114803076Y-149861645D01*
X115213110Y-150031476D01*
X115443000Y-149910155D01*
X115443000Y-148717000D01*
X115697000Y-148717000D01*
X115697000Y-149910155D01*
X115926890Y-150031476D01*
X116336924Y-149861645D01*
X116765183Y-149471358D01*
X116840000Y-149312046D01*
X116914817Y-149471358D01*
X117343076Y-149861645D01*
X117753110Y-150031476D01*
X117983000Y-149910155D01*
X117983000Y-148717000D01*
X115697000Y-148717000D01*
X115443000Y-148717000D01*
X114249181Y-148717000D01*
X114128514Y-148946892D01*
X106213855Y-148946892D01*
X106484150Y-148295950D01*
X106484204Y-148233108D01*
X114128514Y-148233108D01*
X114249181Y-148463000D01*
X115443000Y-148463000D01*
X115443000Y-147269845D01*
X115697000Y-147269845D01*
X115697000Y-148463000D01*
X117983000Y-148463000D01*
X117983000Y-147269845D01*
X118237000Y-147269845D01*
X118237000Y-148463000D01*
X118257000Y-148463000D01*
X118257000Y-148717000D01*
X118237000Y-148717000D01*
X118237000Y-149910155D01*
X118466890Y-150031476D01*
X118876924Y-149861645D01*
X119305183Y-149471358D01*
X119372298Y-149328447D01*
X119599946Y-149669147D01*
X120081715Y-149991054D01*
X120650000Y-150104093D01*
X121218285Y-149991054D01*
X121700054Y-149669147D01*
X121920000Y-149339974D01*
X122139946Y-149669147D01*
X122621715Y-149991054D01*
X123190000Y-150104093D01*
X123758285Y-149991054D01*
X124240054Y-149669147D01*
X124460000Y-149339974D01*
X124679946Y-149669147D01*
X125161715Y-149991054D01*
X125730000Y-150104093D01*
X126298285Y-149991054D01*
X126780054Y-149669147D01*
X127000000Y-149339974D01*
X127219946Y-149669147D01*
X127701715Y-149991054D01*
X128270000Y-150104093D01*
X128838285Y-149991054D01*
X129320054Y-149669147D01*
X129540000Y-149339974D01*
X129759946Y-149669147D01*
X130241715Y-149991054D01*
X130810000Y-150104093D01*
X131378285Y-149991054D01*
X131860054Y-149669147D01*
X131887850Y-149627548D01*
X131896838Y-149675317D01*
X132035910Y-149891441D01*
X132248110Y-150036431D01*
X132500000Y-150087440D01*
X134200000Y-150087440D01*
X134435317Y-150043162D01*
X134651441Y-149904090D01*
X134796431Y-149691890D01*
X134847440Y-149440000D01*
X134847440Y-147740000D01*
X134803162Y-147504683D01*
X134664090Y-147288559D01*
X134451890Y-147143569D01*
X134200000Y-147092560D01*
X132500000Y-147092560D01*
X132264683Y-147136838D01*
X132048559Y-147275910D01*
X131903569Y-147488110D01*
X131889914Y-147555541D01*
X131860054Y-147510853D01*
X131378285Y-147188946D01*
X130810000Y-147075907D01*
X130241715Y-147188946D01*
X129759946Y-147510853D01*
X129540000Y-147840026D01*
X129320054Y-147510853D01*
X128838285Y-147188946D01*
X128270000Y-147075907D01*
X127701715Y-147188946D01*
X127219946Y-147510853D01*
X127000000Y-147840026D01*
X126780054Y-147510853D01*
X126298285Y-147188946D01*
X125730000Y-147075907D01*
X125161715Y-147188946D01*
X124679946Y-147510853D01*
X124460000Y-147840026D01*
X124240054Y-147510853D01*
X123758285Y-147188946D01*
X123190000Y-147075907D01*
X122621715Y-147188946D01*
X122139946Y-147510853D01*
X121920000Y-147840026D01*
X121700054Y-147510853D01*
X121218285Y-147188946D01*
X120650000Y-147075907D01*
X120081715Y-147188946D01*
X119599946Y-147510853D01*
X119372298Y-147851553D01*
X119305183Y-147708642D01*
X118876924Y-147318355D01*
X118466890Y-147148524D01*
X118237000Y-147269845D01*
X117983000Y-147269845D01*
X117753110Y-147148524D01*
X117343076Y-147318355D01*
X116914817Y-147708642D01*
X116840000Y-147867954D01*
X116765183Y-147708642D01*
X116336924Y-147318355D01*
X115926890Y-147148524D01*
X115697000Y-147269845D01*
X115443000Y-147269845D01*
X115213110Y-147148524D01*
X114803076Y-147318355D01*
X114374817Y-147708642D01*
X114128514Y-148233108D01*
X106484204Y-148233108D01*
X106485846Y-146352576D01*
X106222070Y-145714188D01*
X130055417Y-145714188D01*
X130117071Y-145949800D01*
X130617480Y-146125927D01*
X131147199Y-146097148D01*
X131502929Y-145949800D01*
X131564583Y-145714188D01*
X130810000Y-144959605D01*
X130055417Y-145714188D01*
X106222070Y-145714188D01*
X105756523Y-144587480D01*
X129464073Y-144587480D01*
X129492852Y-145117199D01*
X129640200Y-145472929D01*
X129875812Y-145534583D01*
X130630395Y-144780000D01*
X130989605Y-144780000D01*
X131744188Y-145534583D01*
X131979800Y-145472929D01*
X132155927Y-144972520D01*
X132127148Y-144442801D01*
X131979800Y-144087071D01*
X131744188Y-144025417D01*
X130989605Y-144780000D01*
X130630395Y-144780000D01*
X129875812Y-144025417D01*
X129640200Y-144087071D01*
X129464073Y-144587480D01*
X105756523Y-144587480D01*
X105743716Y-144556485D01*
X104370743Y-143181113D01*
X102740281Y-142504086D01*
X129476269Y-142504086D01*
X129678854Y-142994380D01*
X130053647Y-143369827D01*
X130375118Y-143503314D01*
X130117071Y-143610200D01*
X130055417Y-143845812D01*
X130810000Y-144600395D01*
X131564583Y-143845812D01*
X131502929Y-143610200D01*
X131223688Y-143511917D01*
X131564380Y-143371146D01*
X131939827Y-142996353D01*
X132143268Y-142506413D01*
X132143731Y-141975914D01*
X131941146Y-141485620D01*
X131566353Y-141110173D01*
X131076413Y-140906732D01*
X130545914Y-140906269D01*
X130055620Y-141108854D01*
X129680173Y-141483647D01*
X129476732Y-141973587D01*
X129476269Y-142504086D01*
X102740281Y-142504086D01*
X102575950Y-142435850D01*
X100632576Y-142434154D01*
X98836485Y-143176284D01*
X97461113Y-144549257D01*
X96715850Y-146344050D01*
X96714154Y-148287424D01*
X97456284Y-150083515D01*
X97817138Y-150445000D01*
X84251000Y-150445000D01*
X84251000Y-135890000D01*
X91731884Y-135890000D01*
X91830490Y-136385728D01*
X92111298Y-136805986D01*
X92531556Y-137086794D01*
X92899589Y-137160000D01*
X92531556Y-137233206D01*
X92111298Y-137514014D01*
X91830490Y-137934272D01*
X91731884Y-138430000D01*
X91830490Y-138925728D01*
X92111298Y-139345986D01*
X92531556Y-139626794D01*
X92899589Y-139700000D01*
X92531556Y-139773206D01*
X92111298Y-140054014D01*
X91830490Y-140474272D01*
X91731884Y-140970000D01*
X91830490Y-141465728D01*
X92111298Y-141885986D01*
X92531556Y-142166794D01*
X93027284Y-142265400D01*
X94424716Y-142265400D01*
X94920444Y-142166794D01*
X95340702Y-141885986D01*
X95621510Y-141465728D01*
X95720116Y-140970000D01*
X95621510Y-140474272D01*
X95340702Y-140054014D01*
X94920444Y-139773206D01*
X94552411Y-139700000D01*
X94920444Y-139626794D01*
X95340702Y-139345986D01*
X95621510Y-138925728D01*
X95720116Y-138430000D01*
X95621510Y-137934272D01*
X95340702Y-137514014D01*
X94920444Y-137233206D01*
X94552411Y-137160000D01*
X94920444Y-137086794D01*
X95340702Y-136805986D01*
X95621510Y-136385728D01*
X95720116Y-135890000D01*
X95621510Y-135394272D01*
X95340702Y-134974014D01*
X94920444Y-134693206D01*
X94579486Y-134625385D01*
X94999461Y-134498193D01*
X95392189Y-134176184D01*
X95631795Y-133728396D01*
X95639820Y-133677105D01*
X95515933Y-133477000D01*
X93853000Y-133477000D01*
X93853000Y-133497000D01*
X93599000Y-133497000D01*
X93599000Y-133477000D01*
X91936067Y-133477000D01*
X91812180Y-133677105D01*
X91820205Y-133728396D01*
X92059811Y-134176184D01*
X92452539Y-134498193D01*
X92872514Y-134625385D01*
X92531556Y-134693206D01*
X92111298Y-134974014D01*
X91830490Y-135394272D01*
X91731884Y-135890000D01*
X84251000Y-135890000D01*
X84251000Y-131137105D01*
X91812180Y-131137105D01*
X91820205Y-131188396D01*
X92059811Y-131636184D01*
X92452539Y-131958193D01*
X92854732Y-132080000D01*
X92452539Y-132201807D01*
X92059811Y-132523816D01*
X91820205Y-132971604D01*
X91812180Y-133022895D01*
X91936067Y-133223000D01*
X93599000Y-133223000D01*
X93599000Y-130937000D01*
X93853000Y-130937000D01*
X93853000Y-133223000D01*
X95515933Y-133223000D01*
X95639820Y-133022895D01*
X95631795Y-132971604D01*
X95392189Y-132523816D01*
X94999461Y-132201807D01*
X94597268Y-132080000D01*
X94999461Y-131958193D01*
X95392189Y-131636184D01*
X95631795Y-131188396D01*
X95639820Y-131137105D01*
X99432180Y-131137105D01*
X99440205Y-131188396D01*
X99679811Y-131636184D01*
X100072539Y-131958193D01*
X100474732Y-132080000D01*
X100072539Y-132201807D01*
X99679811Y-132523816D01*
X99440205Y-132971604D01*
X99432180Y-133022895D01*
X99556067Y-133223000D01*
X101219000Y-133223000D01*
X101219000Y-130937000D01*
X101473000Y-130937000D01*
X101473000Y-133223000D01*
X103135933Y-133223000D01*
X103259820Y-133022895D01*
X103251795Y-132971604D01*
X103012189Y-132523816D01*
X102619461Y-132201807D01*
X102217268Y-132080000D01*
X102619461Y-131958193D01*
X103012189Y-131636184D01*
X103251795Y-131188396D01*
X103259820Y-131137105D01*
X103135933Y-130937000D01*
X101473000Y-130937000D01*
X101219000Y-130937000D01*
X99556067Y-130937000D01*
X99432180Y-131137105D01*
X95639820Y-131137105D01*
X95515933Y-130937000D01*
X93853000Y-130937000D01*
X93599000Y-130937000D01*
X91936067Y-130937000D01*
X91812180Y-131137105D01*
X84251000Y-131137105D01*
X84251000Y-123190000D01*
X91731884Y-123190000D01*
X91830490Y-123685728D01*
X92111298Y-124105986D01*
X92531556Y-124386794D01*
X92899589Y-124460000D01*
X92531556Y-124533206D01*
X92111298Y-124814014D01*
X91830490Y-125234272D01*
X91731884Y-125730000D01*
X91830490Y-126225728D01*
X92111298Y-126645986D01*
X92531556Y-126926794D01*
X92899589Y-127000000D01*
X92531556Y-127073206D01*
X92111298Y-127354014D01*
X91830490Y-127774272D01*
X91731884Y-128270000D01*
X91830490Y-128765728D01*
X92111298Y-129185986D01*
X92531556Y-129466794D01*
X92872514Y-129534615D01*
X92452539Y-129661807D01*
X92059811Y-129983816D01*
X91820205Y-130431604D01*
X91812180Y-130482895D01*
X91936067Y-130683000D01*
X93599000Y-130683000D01*
X93599000Y-130663000D01*
X93853000Y-130663000D01*
X93853000Y-130683000D01*
X95515933Y-130683000D01*
X95639820Y-130482895D01*
X95631795Y-130431604D01*
X95392189Y-129983816D01*
X94999461Y-129661807D01*
X94579486Y-129534615D01*
X94920444Y-129466794D01*
X95340702Y-129185986D01*
X95621510Y-128765728D01*
X95720116Y-128270000D01*
X95621510Y-127774272D01*
X95340702Y-127354014D01*
X94920444Y-127073206D01*
X94552411Y-127000000D01*
X94920444Y-126926794D01*
X95340702Y-126645986D01*
X95621510Y-126225728D01*
X95720116Y-125730000D01*
X95621510Y-125234272D01*
X95340702Y-124814014D01*
X94920444Y-124533206D01*
X94552411Y-124460000D01*
X94920444Y-124386794D01*
X95340702Y-124105986D01*
X95621510Y-123685728D01*
X95720116Y-123190000D01*
X95621510Y-122694272D01*
X95340702Y-122274014D01*
X94920444Y-121993206D01*
X94424716Y-121894600D01*
X93027284Y-121894600D01*
X92531556Y-121993206D01*
X92111298Y-122274014D01*
X91830490Y-122694272D01*
X91731884Y-123190000D01*
X84251000Y-123190000D01*
X84251000Y-104140000D01*
X86115907Y-104140000D01*
X86228946Y-104708285D01*
X86550853Y-105190054D01*
X86880026Y-105410000D01*
X86550853Y-105629946D01*
X86228946Y-106111715D01*
X86115907Y-106680000D01*
X86228946Y-107248285D01*
X86550853Y-107730054D01*
X87032622Y-108051961D01*
X87600907Y-108165000D01*
X87659093Y-108165000D01*
X88227378Y-108051961D01*
X88709147Y-107730054D01*
X89031054Y-107248285D01*
X89144093Y-106680000D01*
X89031054Y-106111715D01*
X88709147Y-105629946D01*
X88379974Y-105410000D01*
X88709147Y-105190054D01*
X89031054Y-104708285D01*
X89144093Y-104140000D01*
X89031054Y-103571715D01*
X88709147Y-103089946D01*
X88667548Y-103062150D01*
X88715317Y-103053162D01*
X88931441Y-102914090D01*
X89076431Y-102701890D01*
X89127440Y-102450000D01*
X89127440Y-101600000D01*
X94015000Y-101600000D01*
X94015000Y-116840000D01*
X94109009Y-117312614D01*
X94376723Y-117713277D01*
X95011723Y-118348277D01*
X95412386Y-118615991D01*
X95885000Y-118710000D01*
X100111000Y-118710000D01*
X100111000Y-122020305D01*
X99731298Y-122274014D01*
X99450490Y-122694272D01*
X99351884Y-123190000D01*
X99450490Y-123685728D01*
X99731298Y-124105986D01*
X100151556Y-124386794D01*
X100519589Y-124460000D01*
X100151556Y-124533206D01*
X99731298Y-124814014D01*
X99450490Y-125234272D01*
X99351884Y-125730000D01*
X99450490Y-126225728D01*
X99731298Y-126645986D01*
X100151556Y-126926794D01*
X100519589Y-127000000D01*
X100151556Y-127073206D01*
X99731298Y-127354014D01*
X99450490Y-127774272D01*
X99351884Y-128270000D01*
X99450490Y-128765728D01*
X99731298Y-129185986D01*
X100151556Y-129466794D01*
X100492514Y-129534615D01*
X100072539Y-129661807D01*
X99679811Y-129983816D01*
X99440205Y-130431604D01*
X99432180Y-130482895D01*
X99556067Y-130683000D01*
X101219000Y-130683000D01*
X101219000Y-130663000D01*
X101473000Y-130663000D01*
X101473000Y-130683000D01*
X103135933Y-130683000D01*
X103259820Y-130482895D01*
X103251795Y-130431604D01*
X103213413Y-130359873D01*
X103439515Y-130586371D01*
X103893266Y-130774785D01*
X104384579Y-130775214D01*
X104475000Y-130737853D01*
X104475000Y-137495000D01*
X102932246Y-137495000D01*
X102540444Y-137233206D01*
X102172411Y-137160000D01*
X102540444Y-137086794D01*
X102960702Y-136805986D01*
X103241510Y-136385728D01*
X103340116Y-135890000D01*
X103241510Y-135394272D01*
X102960702Y-134974014D01*
X102540444Y-134693206D01*
X102199486Y-134625385D01*
X102619461Y-134498193D01*
X103012189Y-134176184D01*
X103251795Y-133728396D01*
X103259820Y-133677105D01*
X103135933Y-133477000D01*
X101473000Y-133477000D01*
X101473000Y-133497000D01*
X101219000Y-133497000D01*
X101219000Y-133477000D01*
X99556067Y-133477000D01*
X99432180Y-133677105D01*
X99440205Y-133728396D01*
X99679811Y-134176184D01*
X100072539Y-134498193D01*
X100492514Y-134625385D01*
X100151556Y-134693206D01*
X99731298Y-134974014D01*
X99450490Y-135394272D01*
X99351884Y-135890000D01*
X99450490Y-136385728D01*
X99731298Y-136805986D01*
X100151556Y-137086794D01*
X100519589Y-137160000D01*
X100151556Y-137233206D01*
X99731298Y-137514014D01*
X99450490Y-137934272D01*
X99351884Y-138430000D01*
X99450490Y-138925728D01*
X99731298Y-139345986D01*
X100151556Y-139626794D01*
X100519589Y-139700000D01*
X100151556Y-139773206D01*
X99731298Y-140054014D01*
X99450490Y-140474272D01*
X99351884Y-140970000D01*
X99450490Y-141465728D01*
X99731298Y-141885986D01*
X100151556Y-142166794D01*
X100647284Y-142265400D01*
X102044716Y-142265400D01*
X102540444Y-142166794D01*
X102960702Y-141885986D01*
X103241510Y-141465728D01*
X103340116Y-140970000D01*
X103241510Y-140474272D01*
X102960702Y-140054014D01*
X102540444Y-139773206D01*
X102172411Y-139700000D01*
X102540444Y-139626794D01*
X102932246Y-139365000D01*
X105410000Y-139365000D01*
X105767809Y-139293827D01*
X106071145Y-139091145D01*
X106273827Y-138787809D01*
X106292469Y-138694086D01*
X126936269Y-138694086D01*
X127138854Y-139184380D01*
X127513647Y-139559827D01*
X128003587Y-139763268D01*
X128534086Y-139763731D01*
X129024380Y-139561146D01*
X129399827Y-139186353D01*
X129540094Y-138848554D01*
X129678854Y-139184380D01*
X130053647Y-139559827D01*
X130543587Y-139763268D01*
X131074086Y-139763731D01*
X131564380Y-139561146D01*
X131939827Y-139186353D01*
X132105698Y-138786890D01*
X156038524Y-138786890D01*
X156208355Y-139196924D01*
X156598642Y-139625183D01*
X156757954Y-139700000D01*
X156598642Y-139774817D01*
X156208355Y-140203076D01*
X156038524Y-140613110D01*
X156159845Y-140843000D01*
X157353000Y-140843000D01*
X157353000Y-138557000D01*
X157607000Y-138557000D01*
X157607000Y-140843000D01*
X158800155Y-140843000D01*
X158921476Y-140613110D01*
X158751645Y-140203076D01*
X158361358Y-139774817D01*
X158202046Y-139700000D01*
X158361358Y-139625183D01*
X158751645Y-139196924D01*
X158921476Y-138786890D01*
X158800155Y-138557000D01*
X157607000Y-138557000D01*
X157353000Y-138557000D01*
X156159845Y-138557000D01*
X156038524Y-138786890D01*
X132105698Y-138786890D01*
X132143268Y-138696413D01*
X132143731Y-138165914D01*
X131941146Y-137675620D01*
X131566353Y-137300173D01*
X131076413Y-137096732D01*
X130545914Y-137096269D01*
X130055620Y-137298854D01*
X129680173Y-137673647D01*
X129539906Y-138011446D01*
X129401146Y-137675620D01*
X129026353Y-137300173D01*
X128536413Y-137096732D01*
X128005914Y-137096269D01*
X127515620Y-137298854D01*
X127140173Y-137673647D01*
X126936732Y-138163587D01*
X126936269Y-138694086D01*
X106292469Y-138694086D01*
X106345000Y-138430000D01*
X106345000Y-136246890D01*
X156038524Y-136246890D01*
X156208355Y-136656924D01*
X156598642Y-137085183D01*
X156757954Y-137160000D01*
X156598642Y-137234817D01*
X156208355Y-137663076D01*
X156038524Y-138073110D01*
X156159845Y-138303000D01*
X157353000Y-138303000D01*
X157353000Y-136017000D01*
X157607000Y-136017000D01*
X157607000Y-138303000D01*
X158800155Y-138303000D01*
X158921476Y-138073110D01*
X158751645Y-137663076D01*
X158361358Y-137234817D01*
X158202046Y-137160000D01*
X158361358Y-137085183D01*
X158751645Y-136656924D01*
X158921476Y-136246890D01*
X158800155Y-136017000D01*
X157607000Y-136017000D01*
X157353000Y-136017000D01*
X156159845Y-136017000D01*
X156038524Y-136246890D01*
X106345000Y-136246890D01*
X106345000Y-134905750D01*
X109055000Y-134905750D01*
X109055000Y-135546310D01*
X109151673Y-135779699D01*
X109330302Y-135958327D01*
X109563691Y-136055000D01*
X110204250Y-136055000D01*
X110363000Y-135896250D01*
X110363000Y-134747000D01*
X109213750Y-134747000D01*
X109055000Y-134905750D01*
X106345000Y-134905750D01*
X106345000Y-133693690D01*
X109055000Y-133693690D01*
X109055000Y-134334250D01*
X109213750Y-134493000D01*
X110363000Y-134493000D01*
X110363000Y-133343750D01*
X110617000Y-133343750D01*
X110617000Y-134493000D01*
X110637000Y-134493000D01*
X110637000Y-134747000D01*
X110617000Y-134747000D01*
X110617000Y-135896250D01*
X110775750Y-136055000D01*
X111416309Y-136055000D01*
X111649698Y-135958327D01*
X111828327Y-135779699D01*
X111925000Y-135546310D01*
X111925000Y-135544239D01*
X112216077Y-135835824D01*
X112743309Y-136054750D01*
X113314187Y-136055248D01*
X113841800Y-135837243D01*
X114245824Y-135433923D01*
X114299862Y-135303785D01*
X114352757Y-135431800D01*
X114756077Y-135835824D01*
X115283309Y-136054750D01*
X115854187Y-136055248D01*
X116381800Y-135837243D01*
X116785824Y-135433923D01*
X116839862Y-135303785D01*
X116892757Y-135431800D01*
X117296077Y-135835824D01*
X117823309Y-136054750D01*
X118394187Y-136055248D01*
X118921800Y-135837243D01*
X119325824Y-135433923D01*
X119379862Y-135303785D01*
X119432757Y-135431800D01*
X119836077Y-135835824D01*
X120363309Y-136054750D01*
X120934187Y-136055248D01*
X121461800Y-135837243D01*
X121865824Y-135433923D01*
X121919862Y-135303785D01*
X121972757Y-135431800D01*
X122376077Y-135835824D01*
X122903309Y-136054750D01*
X123474187Y-136055248D01*
X124001800Y-135837243D01*
X124405824Y-135433923D01*
X124459862Y-135303785D01*
X124512757Y-135431800D01*
X124916077Y-135835824D01*
X125443309Y-136054750D01*
X126014187Y-136055248D01*
X126541800Y-135837243D01*
X126945824Y-135433923D01*
X126999862Y-135303785D01*
X127052757Y-135431800D01*
X127456077Y-135835824D01*
X127983309Y-136054750D01*
X128554187Y-136055248D01*
X129081800Y-135837243D01*
X129485824Y-135433923D01*
X129539862Y-135303785D01*
X129592757Y-135431800D01*
X129996077Y-135835824D01*
X130523309Y-136054750D01*
X131094187Y-136055248D01*
X131621800Y-135837243D01*
X132025824Y-135433923D01*
X132079862Y-135303785D01*
X132132757Y-135431800D01*
X132536077Y-135835824D01*
X133063309Y-136054750D01*
X133634187Y-136055248D01*
X134161800Y-135837243D01*
X134565824Y-135433923D01*
X134619862Y-135303785D01*
X134672757Y-135431800D01*
X135076077Y-135835824D01*
X135603309Y-136054750D01*
X136174187Y-136055248D01*
X136701800Y-135837243D01*
X137105824Y-135433923D01*
X137159862Y-135303785D01*
X137212757Y-135431800D01*
X137616077Y-135835824D01*
X138143309Y-136054750D01*
X138714187Y-136055248D01*
X139241800Y-135837243D01*
X139645824Y-135433923D01*
X139699862Y-135303785D01*
X139752757Y-135431800D01*
X140156077Y-135835824D01*
X140683309Y-136054750D01*
X141254187Y-136055248D01*
X141781800Y-135837243D01*
X142185824Y-135433923D01*
X142239862Y-135303785D01*
X142292757Y-135431800D01*
X142696077Y-135835824D01*
X143223309Y-136054750D01*
X143794187Y-136055248D01*
X144321800Y-135837243D01*
X144725824Y-135433923D01*
X144944750Y-134906691D01*
X144945248Y-134335813D01*
X144727243Y-133808200D01*
X144626110Y-133706890D01*
X156038524Y-133706890D01*
X156208355Y-134116924D01*
X156598642Y-134545183D01*
X156757954Y-134620000D01*
X156598642Y-134694817D01*
X156208355Y-135123076D01*
X156038524Y-135533110D01*
X156159845Y-135763000D01*
X157353000Y-135763000D01*
X157353000Y-133477000D01*
X157607000Y-133477000D01*
X157607000Y-135763000D01*
X158800155Y-135763000D01*
X158921476Y-135533110D01*
X158751645Y-135123076D01*
X158361358Y-134694817D01*
X158202046Y-134620000D01*
X158361358Y-134545183D01*
X158751645Y-134116924D01*
X158921476Y-133706890D01*
X158800155Y-133477000D01*
X157607000Y-133477000D01*
X157353000Y-133477000D01*
X156159845Y-133477000D01*
X156038524Y-133706890D01*
X144626110Y-133706890D01*
X144323923Y-133404176D01*
X144193785Y-133350138D01*
X144321800Y-133297243D01*
X144725824Y-132893923D01*
X144944750Y-132366691D01*
X144945248Y-131795813D01*
X144727243Y-131268200D01*
X144626110Y-131166890D01*
X156038524Y-131166890D01*
X156208355Y-131576924D01*
X156598642Y-132005183D01*
X156757954Y-132080000D01*
X156598642Y-132154817D01*
X156208355Y-132583076D01*
X156038524Y-132993110D01*
X156159845Y-133223000D01*
X157353000Y-133223000D01*
X157353000Y-130937000D01*
X157607000Y-130937000D01*
X157607000Y-133223000D01*
X158800155Y-133223000D01*
X158921476Y-132993110D01*
X158751645Y-132583076D01*
X158361358Y-132154817D01*
X158202046Y-132080000D01*
X158361358Y-132005183D01*
X158751645Y-131576924D01*
X158921476Y-131166890D01*
X158800155Y-130937000D01*
X157607000Y-130937000D01*
X157353000Y-130937000D01*
X156159845Y-130937000D01*
X156038524Y-131166890D01*
X144626110Y-131166890D01*
X144323923Y-130864176D01*
X144193785Y-130810138D01*
X144321800Y-130757243D01*
X144725824Y-130353923D01*
X144944750Y-129826691D01*
X144945248Y-129255813D01*
X144727243Y-128728200D01*
X144626110Y-128626890D01*
X156038524Y-128626890D01*
X156208355Y-129036924D01*
X156598642Y-129465183D01*
X156757954Y-129540000D01*
X156598642Y-129614817D01*
X156208355Y-130043076D01*
X156038524Y-130453110D01*
X156159845Y-130683000D01*
X157353000Y-130683000D01*
X157353000Y-128397000D01*
X157607000Y-128397000D01*
X157607000Y-130683000D01*
X158800155Y-130683000D01*
X158921476Y-130453110D01*
X158751645Y-130043076D01*
X158361358Y-129614817D01*
X158202046Y-129540000D01*
X158361358Y-129465183D01*
X158751645Y-129036924D01*
X158921476Y-128626890D01*
X158800155Y-128397000D01*
X157607000Y-128397000D01*
X157353000Y-128397000D01*
X156159845Y-128397000D01*
X156038524Y-128626890D01*
X144626110Y-128626890D01*
X144323923Y-128324176D01*
X144209232Y-128276552D01*
X144264005Y-128253864D01*
X144338139Y-128007745D01*
X143510000Y-127179605D01*
X142681861Y-128007745D01*
X142755995Y-128253864D01*
X142814254Y-128274805D01*
X142698200Y-128322757D01*
X142294176Y-128726077D01*
X142075250Y-129253309D01*
X142074752Y-129824187D01*
X142292757Y-130351800D01*
X142696077Y-130755824D01*
X142826215Y-130809862D01*
X142698200Y-130862757D01*
X142294176Y-131266077D01*
X142075250Y-131793309D01*
X142074752Y-132364187D01*
X142292757Y-132891800D01*
X142696077Y-133295824D01*
X142826215Y-133349862D01*
X142698200Y-133402757D01*
X142294176Y-133806077D01*
X142240138Y-133936215D01*
X142187243Y-133808200D01*
X141783923Y-133404176D01*
X141256691Y-133185250D01*
X140685813Y-133184752D01*
X140158200Y-133402757D01*
X139754176Y-133806077D01*
X139700138Y-133936215D01*
X139647243Y-133808200D01*
X139243923Y-133404176D01*
X138716691Y-133185250D01*
X138145813Y-133184752D01*
X137618200Y-133402757D01*
X137214176Y-133806077D01*
X137160138Y-133936215D01*
X137107243Y-133808200D01*
X136703923Y-133404176D01*
X136176691Y-133185250D01*
X135605813Y-133184752D01*
X135078200Y-133402757D01*
X134674176Y-133806077D01*
X134620138Y-133936215D01*
X134567243Y-133808200D01*
X134163923Y-133404176D01*
X133636691Y-133185250D01*
X133065813Y-133184752D01*
X132538200Y-133402757D01*
X132134176Y-133806077D01*
X132080138Y-133936215D01*
X132027243Y-133808200D01*
X131623923Y-133404176D01*
X131096691Y-133185250D01*
X130525813Y-133184752D01*
X129998200Y-133402757D01*
X129594176Y-133806077D01*
X129540138Y-133936215D01*
X129487243Y-133808200D01*
X129083923Y-133404176D01*
X128556691Y-133185250D01*
X127985813Y-133184752D01*
X127458200Y-133402757D01*
X127054176Y-133806077D01*
X127000138Y-133936215D01*
X126947243Y-133808200D01*
X126543923Y-133404176D01*
X126016691Y-133185250D01*
X125445813Y-133184752D01*
X124918200Y-133402757D01*
X124514176Y-133806077D01*
X124460138Y-133936215D01*
X124407243Y-133808200D01*
X124003923Y-133404176D01*
X123476691Y-133185250D01*
X122905813Y-133184752D01*
X122378200Y-133402757D01*
X121974176Y-133806077D01*
X121920138Y-133936215D01*
X121867243Y-133808200D01*
X121463923Y-133404176D01*
X120936691Y-133185250D01*
X120365813Y-133184752D01*
X119838200Y-133402757D01*
X119434176Y-133806077D01*
X119380138Y-133936215D01*
X119327243Y-133808200D01*
X118923923Y-133404176D01*
X118396691Y-133185250D01*
X117825813Y-133184752D01*
X117298200Y-133402757D01*
X116894176Y-133806077D01*
X116840138Y-133936215D01*
X116787243Y-133808200D01*
X116383923Y-133404176D01*
X115856691Y-133185250D01*
X115285813Y-133184752D01*
X114758200Y-133402757D01*
X114354176Y-133806077D01*
X114300138Y-133936215D01*
X114247243Y-133808200D01*
X113843923Y-133404176D01*
X113316691Y-133185250D01*
X112745813Y-133184752D01*
X112218200Y-133402757D01*
X111925000Y-133695446D01*
X111925000Y-133693690D01*
X111828327Y-133460301D01*
X111649698Y-133281673D01*
X111416309Y-133185000D01*
X110775750Y-133185000D01*
X110617000Y-133343750D01*
X110363000Y-133343750D01*
X110204250Y-133185000D01*
X109563691Y-133185000D01*
X109330302Y-133281673D01*
X109151673Y-133460301D01*
X109055000Y-133693690D01*
X106345000Y-133693690D01*
X106345000Y-130475000D01*
X118110000Y-130475000D01*
X118467809Y-130403827D01*
X118771145Y-130201145D01*
X124294810Y-124677480D01*
X124294752Y-124744187D01*
X124512757Y-125271800D01*
X124916077Y-125675824D01*
X125046215Y-125729862D01*
X124918200Y-125782757D01*
X124514176Y-126186077D01*
X124295250Y-126713309D01*
X124294752Y-127284187D01*
X124512757Y-127811800D01*
X124916077Y-128215824D01*
X125443309Y-128434750D01*
X126014187Y-128435248D01*
X126541800Y-128217243D01*
X126945824Y-127813923D01*
X126999862Y-127683785D01*
X127052757Y-127811800D01*
X127456077Y-128215824D01*
X127983309Y-128434750D01*
X128554187Y-128435248D01*
X129081800Y-128217243D01*
X129485824Y-127813923D01*
X129539862Y-127683785D01*
X129592757Y-127811800D01*
X129996077Y-128215824D01*
X130523309Y-128434750D01*
X131094187Y-128435248D01*
X131621800Y-128217243D01*
X132025824Y-127813923D01*
X132079862Y-127683785D01*
X132132757Y-127811800D01*
X132536077Y-128215824D01*
X133063309Y-128434750D01*
X133634187Y-128435248D01*
X134161800Y-128217243D01*
X134565824Y-127813923D01*
X134619862Y-127683785D01*
X134672757Y-127811800D01*
X135076077Y-128215824D01*
X135603309Y-128434750D01*
X136174187Y-128435248D01*
X136701800Y-128217243D01*
X137105824Y-127813923D01*
X137159862Y-127683785D01*
X137212757Y-127811800D01*
X137616077Y-128215824D01*
X138143309Y-128434750D01*
X138714187Y-128435248D01*
X139241800Y-128217243D01*
X139645824Y-127813923D01*
X139699862Y-127683785D01*
X139752757Y-127811800D01*
X140156077Y-128215824D01*
X140683309Y-128434750D01*
X141254187Y-128435248D01*
X141781800Y-128217243D01*
X142185824Y-127813923D01*
X142233448Y-127699232D01*
X142256136Y-127754005D01*
X142502255Y-127828139D01*
X143330395Y-127000000D01*
X143689605Y-127000000D01*
X144517745Y-127828139D01*
X144763864Y-127754005D01*
X144956965Y-127216777D01*
X144929778Y-126646546D01*
X144763864Y-126245995D01*
X144517745Y-126171861D01*
X143689605Y-127000000D01*
X143330395Y-127000000D01*
X142502255Y-126171861D01*
X142256136Y-126245995D01*
X142235195Y-126304254D01*
X142187243Y-126188200D01*
X141783923Y-125784176D01*
X141653785Y-125730138D01*
X141781800Y-125677243D01*
X142185824Y-125273923D01*
X142239862Y-125143785D01*
X142292757Y-125271800D01*
X142696077Y-125675824D01*
X142810768Y-125723448D01*
X142755995Y-125746136D01*
X142681861Y-125992255D01*
X143510000Y-126820395D01*
X144314644Y-126015750D01*
X155995000Y-126015750D01*
X155995000Y-126706310D01*
X156091673Y-126939699D01*
X156270302Y-127118327D01*
X156479878Y-127205136D01*
X156208355Y-127503076D01*
X156038524Y-127913110D01*
X156159845Y-128143000D01*
X157353000Y-128143000D01*
X157353000Y-125857000D01*
X157607000Y-125857000D01*
X157607000Y-128143000D01*
X158800155Y-128143000D01*
X158921476Y-127913110D01*
X158751645Y-127503076D01*
X158480122Y-127205136D01*
X158689698Y-127118327D01*
X158868327Y-126939699D01*
X158965000Y-126706310D01*
X158965000Y-126015750D01*
X158806250Y-125857000D01*
X157607000Y-125857000D01*
X157353000Y-125857000D01*
X156153750Y-125857000D01*
X155995000Y-126015750D01*
X144314644Y-126015750D01*
X144338139Y-125992255D01*
X144264005Y-125746136D01*
X144205746Y-125725195D01*
X144321800Y-125677243D01*
X144725824Y-125273923D01*
X144941843Y-124753690D01*
X155995000Y-124753690D01*
X155995000Y-125444250D01*
X156153750Y-125603000D01*
X157353000Y-125603000D01*
X157353000Y-124403750D01*
X157607000Y-124403750D01*
X157607000Y-125603000D01*
X158806250Y-125603000D01*
X158965000Y-125444250D01*
X158965000Y-124753690D01*
X158868327Y-124520301D01*
X158689698Y-124341673D01*
X158456309Y-124245000D01*
X157765750Y-124245000D01*
X157607000Y-124403750D01*
X157353000Y-124403750D01*
X157194250Y-124245000D01*
X156503691Y-124245000D01*
X156270302Y-124341673D01*
X156091673Y-124520301D01*
X155995000Y-124753690D01*
X144941843Y-124753690D01*
X144944750Y-124746691D01*
X144945248Y-124175813D01*
X144727243Y-123648200D01*
X144323923Y-123244176D01*
X144193785Y-123190138D01*
X144321800Y-123137243D01*
X144725824Y-122733923D01*
X144944750Y-122206691D01*
X144945248Y-121635813D01*
X144727243Y-121108200D01*
X144323923Y-120704176D01*
X144193785Y-120650138D01*
X144321800Y-120597243D01*
X144725824Y-120193923D01*
X144944750Y-119666691D01*
X144944769Y-119644086D01*
X145986269Y-119644086D01*
X146188854Y-120134380D01*
X146563647Y-120509827D01*
X147053587Y-120713268D01*
X147584086Y-120713731D01*
X148074380Y-120511146D01*
X148449827Y-120136353D01*
X148590094Y-119798554D01*
X148728854Y-120134380D01*
X149103647Y-120509827D01*
X149593587Y-120713268D01*
X150124086Y-120713731D01*
X150614380Y-120511146D01*
X150989827Y-120136353D01*
X151193268Y-119646413D01*
X151193731Y-119115914D01*
X150991146Y-118625620D01*
X150616353Y-118250173D01*
X150126413Y-118046732D01*
X149595914Y-118046269D01*
X149105620Y-118248854D01*
X148730173Y-118623647D01*
X148589906Y-118961446D01*
X148451146Y-118625620D01*
X148076353Y-118250173D01*
X147586413Y-118046732D01*
X147055914Y-118046269D01*
X146565620Y-118248854D01*
X146190173Y-118623647D01*
X145986732Y-119113587D01*
X145986269Y-119644086D01*
X144944769Y-119644086D01*
X144945248Y-119095813D01*
X144727243Y-118568200D01*
X144323923Y-118164176D01*
X143796691Y-117945250D01*
X143225813Y-117944752D01*
X142698200Y-118162757D01*
X142294176Y-118566077D01*
X142240138Y-118696215D01*
X142187243Y-118568200D01*
X141783923Y-118164176D01*
X141256691Y-117945250D01*
X140685813Y-117944752D01*
X140158200Y-118162757D01*
X139754176Y-118566077D01*
X139700138Y-118696215D01*
X139647243Y-118568200D01*
X139243923Y-118164176D01*
X138716691Y-117945250D01*
X138145813Y-117944752D01*
X137618200Y-118162757D01*
X137214176Y-118566077D01*
X137160138Y-118696215D01*
X137107243Y-118568200D01*
X136703923Y-118164176D01*
X136176691Y-117945250D01*
X135605813Y-117944752D01*
X135078200Y-118162757D01*
X134674176Y-118566077D01*
X134620138Y-118696215D01*
X134567243Y-118568200D01*
X134163923Y-118164176D01*
X133636691Y-117945250D01*
X133065813Y-117944752D01*
X132538200Y-118162757D01*
X132134176Y-118566077D01*
X132080138Y-118696215D01*
X132027243Y-118568200D01*
X131623923Y-118164176D01*
X131096691Y-117945250D01*
X130525813Y-117944752D01*
X129998200Y-118162757D01*
X129594176Y-118566077D01*
X129540138Y-118696215D01*
X129487243Y-118568200D01*
X129083923Y-118164176D01*
X128556691Y-117945250D01*
X127985813Y-117944752D01*
X127458200Y-118162757D01*
X127054176Y-118566077D01*
X127000138Y-118696215D01*
X126947243Y-118568200D01*
X126543923Y-118164176D01*
X126016691Y-117945250D01*
X125445813Y-117944752D01*
X124918200Y-118162757D01*
X124514176Y-118566077D01*
X124460138Y-118696215D01*
X124407243Y-118568200D01*
X124003923Y-118164176D01*
X123476691Y-117945250D01*
X122905813Y-117944752D01*
X122378200Y-118162757D01*
X121974176Y-118566077D01*
X121920138Y-118696215D01*
X121867243Y-118568200D01*
X121463923Y-118164176D01*
X120936691Y-117945250D01*
X120365813Y-117944752D01*
X119838200Y-118162757D01*
X119434176Y-118566077D01*
X119380138Y-118696215D01*
X119327243Y-118568200D01*
X118923923Y-118164176D01*
X118396691Y-117945250D01*
X117825813Y-117944752D01*
X117298200Y-118162757D01*
X116894176Y-118566077D01*
X116840138Y-118696215D01*
X116787243Y-118568200D01*
X116383923Y-118164176D01*
X115856691Y-117945250D01*
X115285813Y-117944752D01*
X114758200Y-118162757D01*
X114354176Y-118566077D01*
X114306552Y-118680768D01*
X114283864Y-118625995D01*
X114037745Y-118551861D01*
X113209605Y-119380000D01*
X114037745Y-120208139D01*
X114283864Y-120134005D01*
X114304805Y-120075746D01*
X114352757Y-120191800D01*
X114756077Y-120595824D01*
X115283309Y-120814750D01*
X115854187Y-120815248D01*
X116381800Y-120597243D01*
X116785824Y-120193923D01*
X116839862Y-120063785D01*
X116892757Y-120191800D01*
X117296077Y-120595824D01*
X117426215Y-120649862D01*
X117298200Y-120702757D01*
X116894176Y-121106077D01*
X116675250Y-121633309D01*
X116674752Y-122204187D01*
X116892757Y-122731800D01*
X117296077Y-123135824D01*
X117823309Y-123354750D01*
X118394187Y-123355248D01*
X118921800Y-123137243D01*
X119325824Y-122733923D01*
X119379862Y-122603785D01*
X119432757Y-122731800D01*
X119836077Y-123135824D01*
X120363309Y-123354750D01*
X120934187Y-123355248D01*
X121461800Y-123137243D01*
X121865824Y-122733923D01*
X121919862Y-122603785D01*
X121972757Y-122731800D01*
X122376077Y-123135824D01*
X122903309Y-123354750D01*
X122972899Y-123354811D01*
X117722710Y-128605000D01*
X106397290Y-128605000D01*
X107341145Y-127661145D01*
X107543827Y-127357809D01*
X107615000Y-127000000D01*
X107615000Y-122204187D01*
X111594752Y-122204187D01*
X111812757Y-122731800D01*
X112216077Y-123135824D01*
X112743309Y-123354750D01*
X113314187Y-123355248D01*
X113841800Y-123137243D01*
X114245824Y-122733923D01*
X114464750Y-122206691D01*
X114465248Y-121635813D01*
X114247243Y-121108200D01*
X113843923Y-120704176D01*
X113729232Y-120656552D01*
X113784005Y-120633864D01*
X113858139Y-120387745D01*
X113030000Y-119559605D01*
X112201861Y-120387745D01*
X112275995Y-120633864D01*
X112334254Y-120654805D01*
X112218200Y-120702757D01*
X111814176Y-121106077D01*
X111595250Y-121633309D01*
X111594752Y-122204187D01*
X107615000Y-122204187D01*
X107615000Y-119664187D01*
X109054752Y-119664187D01*
X109272757Y-120191800D01*
X109676077Y-120595824D01*
X110203309Y-120814750D01*
X110774187Y-120815248D01*
X111301800Y-120597243D01*
X111705824Y-120193923D01*
X111753448Y-120079232D01*
X111776136Y-120134005D01*
X112022255Y-120208139D01*
X112850395Y-119380000D01*
X112022255Y-118551861D01*
X111776136Y-118625995D01*
X111755195Y-118684254D01*
X111707243Y-118568200D01*
X111511640Y-118372255D01*
X112201861Y-118372255D01*
X113030000Y-119200395D01*
X113858139Y-118372255D01*
X113784005Y-118126136D01*
X113246777Y-117933035D01*
X112676546Y-117960222D01*
X112275995Y-118126136D01*
X112201861Y-118372255D01*
X111511640Y-118372255D01*
X111303923Y-118164176D01*
X110776691Y-117945250D01*
X110205813Y-117944752D01*
X109678200Y-118162757D01*
X109274176Y-118566077D01*
X109055250Y-119093309D01*
X109054752Y-119664187D01*
X107615000Y-119664187D01*
X107615000Y-117862290D01*
X107702290Y-117775000D01*
X128270000Y-117775000D01*
X128627809Y-117703827D01*
X128931145Y-117501145D01*
X129133827Y-117197809D01*
X129205000Y-116840000D01*
X129205000Y-113964188D01*
X135135417Y-113964188D01*
X135197071Y-114199800D01*
X135697480Y-114375927D01*
X136227199Y-114347148D01*
X136582929Y-114199800D01*
X136644583Y-113964188D01*
X135890000Y-113209605D01*
X135135417Y-113964188D01*
X129205000Y-113964188D01*
X129205000Y-112837480D01*
X134544073Y-112837480D01*
X134572852Y-113367199D01*
X134720200Y-113722929D01*
X134955812Y-113784583D01*
X135710395Y-113030000D01*
X136069605Y-113030000D01*
X136824188Y-113784583D01*
X137059800Y-113722929D01*
X137210738Y-113294086D01*
X142176269Y-113294086D01*
X142378854Y-113784380D01*
X142753647Y-114159827D01*
X143243587Y-114363268D01*
X143774086Y-114363731D01*
X144264380Y-114161146D01*
X144639827Y-113786353D01*
X144843268Y-113296413D01*
X144843731Y-112765914D01*
X144641146Y-112275620D01*
X144266353Y-111900173D01*
X143944882Y-111766686D01*
X144202929Y-111659800D01*
X144264583Y-111424188D01*
X143510000Y-110669605D01*
X142755417Y-111424188D01*
X142817071Y-111659800D01*
X143096312Y-111758083D01*
X142755620Y-111898854D01*
X142380173Y-112273647D01*
X142176732Y-112763587D01*
X142176269Y-113294086D01*
X137210738Y-113294086D01*
X137235927Y-113222520D01*
X137207148Y-112692801D01*
X137059800Y-112337071D01*
X136824188Y-112275417D01*
X136069605Y-113030000D01*
X135710395Y-113030000D01*
X134955812Y-112275417D01*
X134720200Y-112337071D01*
X134544073Y-112837480D01*
X129205000Y-112837480D01*
X129205000Y-105674086D01*
X134556269Y-105674086D01*
X134758854Y-106164380D01*
X135133647Y-106539827D01*
X135471446Y-106680094D01*
X135135620Y-106818854D01*
X134760173Y-107193647D01*
X134556732Y-107683587D01*
X134556269Y-108214086D01*
X134758854Y-108704380D01*
X135133647Y-109079827D01*
X135471446Y-109220094D01*
X135135620Y-109358854D01*
X134760173Y-109733647D01*
X134556732Y-110223587D01*
X134556269Y-110754086D01*
X134758854Y-111244380D01*
X135133647Y-111619827D01*
X135455118Y-111753314D01*
X135197071Y-111860200D01*
X135135417Y-112095812D01*
X135890000Y-112850395D01*
X136644583Y-112095812D01*
X136582929Y-111860200D01*
X136303688Y-111761917D01*
X136644380Y-111621146D01*
X137019827Y-111246353D01*
X137223268Y-110756413D01*
X137223668Y-110297480D01*
X142164073Y-110297480D01*
X142192852Y-110827199D01*
X142340200Y-111182929D01*
X142575812Y-111244583D01*
X143330395Y-110490000D01*
X143689605Y-110490000D01*
X144444188Y-111244583D01*
X144679800Y-111182929D01*
X144855927Y-110682520D01*
X144827148Y-110152801D01*
X144679800Y-109797071D01*
X144444188Y-109735417D01*
X143689605Y-110490000D01*
X143330395Y-110490000D01*
X142575812Y-109735417D01*
X142340200Y-109797071D01*
X142164073Y-110297480D01*
X137223668Y-110297480D01*
X137223731Y-110225914D01*
X137021146Y-109735620D01*
X136841652Y-109555812D01*
X142755417Y-109555812D01*
X143510000Y-110310395D01*
X144264583Y-109555812D01*
X144202929Y-109320200D01*
X143702520Y-109144073D01*
X143172801Y-109172852D01*
X142817071Y-109320200D01*
X142755417Y-109555812D01*
X136841652Y-109555812D01*
X136646353Y-109360173D01*
X136308554Y-109219906D01*
X136644380Y-109081146D01*
X137019827Y-108706353D01*
X137223268Y-108216413D01*
X137223731Y-107685914D01*
X137021146Y-107195620D01*
X136646353Y-106820173D01*
X136308554Y-106679906D01*
X136644380Y-106541146D01*
X137019827Y-106166353D01*
X137223268Y-105676413D01*
X137223270Y-105674086D01*
X139636269Y-105674086D01*
X139838854Y-106164380D01*
X140213647Y-106539827D01*
X140551446Y-106680094D01*
X140215620Y-106818854D01*
X139840173Y-107193647D01*
X139636732Y-107683587D01*
X139636269Y-108214086D01*
X139838854Y-108704380D01*
X140213647Y-109079827D01*
X140703587Y-109283268D01*
X141234086Y-109283731D01*
X141724380Y-109081146D01*
X142099827Y-108706353D01*
X142239493Y-108370000D01*
X154712560Y-108370000D01*
X154712560Y-110070000D01*
X154756838Y-110305317D01*
X154895910Y-110521441D01*
X155108110Y-110666431D01*
X155360000Y-110717440D01*
X157060000Y-110717440D01*
X157295317Y-110673162D01*
X157511441Y-110534090D01*
X157656431Y-110321890D01*
X157707440Y-110070000D01*
X157707440Y-108370000D01*
X157663162Y-108134683D01*
X157524090Y-107918559D01*
X157311890Y-107773569D01*
X157060000Y-107722560D01*
X155360000Y-107722560D01*
X155124683Y-107766838D01*
X154908559Y-107905910D01*
X154763569Y-108118110D01*
X154712560Y-108370000D01*
X142239493Y-108370000D01*
X142303268Y-108216413D01*
X142303731Y-107685914D01*
X142101146Y-107195620D01*
X141726353Y-106820173D01*
X141388554Y-106679906D01*
X141724380Y-106541146D01*
X142099827Y-106166353D01*
X142303268Y-105676413D01*
X142303731Y-105145914D01*
X142101146Y-104655620D01*
X141726353Y-104280173D01*
X141236413Y-104076732D01*
X140705914Y-104076269D01*
X140215620Y-104278854D01*
X139840173Y-104653647D01*
X139636732Y-105143587D01*
X139636269Y-105674086D01*
X137223270Y-105674086D01*
X137223731Y-105145914D01*
X137021146Y-104655620D01*
X136646353Y-104280173D01*
X136156413Y-104076732D01*
X135625914Y-104076269D01*
X135135620Y-104278854D01*
X134760173Y-104653647D01*
X134556732Y-105143587D01*
X134556269Y-105674086D01*
X129205000Y-105674086D01*
X129205000Y-102756023D01*
X129320054Y-102679147D01*
X129540000Y-102349974D01*
X129759946Y-102679147D01*
X130241715Y-103001054D01*
X130810000Y-103114093D01*
X131378285Y-103001054D01*
X131860054Y-102679147D01*
X132080000Y-102349974D01*
X132299946Y-102679147D01*
X132781715Y-103001054D01*
X133350000Y-103114093D01*
X133918285Y-103001054D01*
X134400054Y-102679147D01*
X134620000Y-102349974D01*
X134839946Y-102679147D01*
X135321715Y-103001054D01*
X135890000Y-103114093D01*
X136458285Y-103001054D01*
X136940054Y-102679147D01*
X137160000Y-102349974D01*
X137379946Y-102679147D01*
X137861715Y-103001054D01*
X138430000Y-103114093D01*
X138998285Y-103001054D01*
X139480054Y-102679147D01*
X139700000Y-102349974D01*
X139919946Y-102679147D01*
X140401715Y-103001054D01*
X140970000Y-103114093D01*
X141538285Y-103001054D01*
X142020054Y-102679147D01*
X142247702Y-102338447D01*
X142314817Y-102481358D01*
X142743076Y-102871645D01*
X143153110Y-103041476D01*
X143383000Y-102920155D01*
X143383000Y-101727000D01*
X143637000Y-101727000D01*
X143637000Y-102920155D01*
X143866890Y-103041476D01*
X144276924Y-102871645D01*
X144705183Y-102481358D01*
X144951486Y-101956892D01*
X144830819Y-101727000D01*
X143637000Y-101727000D01*
X143383000Y-101727000D01*
X143363000Y-101727000D01*
X143363000Y-101473000D01*
X143383000Y-101473000D01*
X143383000Y-100279845D01*
X143637000Y-100279845D01*
X143637000Y-101473000D01*
X144830819Y-101473000D01*
X144951486Y-101243108D01*
X144705183Y-100718642D01*
X144276924Y-100328355D01*
X143866890Y-100158524D01*
X143637000Y-100279845D01*
X143383000Y-100279845D01*
X143153110Y-100158524D01*
X142743076Y-100328355D01*
X142314817Y-100718642D01*
X142247702Y-100861553D01*
X142020054Y-100520853D01*
X141538285Y-100198946D01*
X140970000Y-100085907D01*
X140401715Y-100198946D01*
X139919946Y-100520853D01*
X139700000Y-100850026D01*
X139480054Y-100520853D01*
X138998285Y-100198946D01*
X138430000Y-100085907D01*
X137861715Y-100198946D01*
X137379946Y-100520853D01*
X137160000Y-100850026D01*
X136940054Y-100520853D01*
X136458285Y-100198946D01*
X135890000Y-100085907D01*
X135321715Y-100198946D01*
X134839946Y-100520853D01*
X134620000Y-100850026D01*
X134400054Y-100520853D01*
X133918285Y-100198946D01*
X133350000Y-100085907D01*
X132781715Y-100198946D01*
X132299946Y-100520853D01*
X132080000Y-100850026D01*
X131860054Y-100520853D01*
X131378285Y-100198946D01*
X130810000Y-100085907D01*
X130241715Y-100198946D01*
X129759946Y-100520853D01*
X129540000Y-100850026D01*
X129320054Y-100520853D01*
X128838285Y-100198946D01*
X128270000Y-100085907D01*
X127701715Y-100198946D01*
X127219946Y-100520853D01*
X127000000Y-100850026D01*
X126780054Y-100520853D01*
X126298285Y-100198946D01*
X125730000Y-100085907D01*
X125161715Y-100198946D01*
X124679946Y-100520853D01*
X124460000Y-100850026D01*
X124240054Y-100520853D01*
X123758285Y-100198946D01*
X123190000Y-100085907D01*
X122621715Y-100198946D01*
X122139946Y-100520853D01*
X122112150Y-100562452D01*
X122103162Y-100514683D01*
X121964090Y-100298559D01*
X121751890Y-100153569D01*
X121500000Y-100102560D01*
X119800000Y-100102560D01*
X119564683Y-100146838D01*
X119348559Y-100285910D01*
X119203569Y-100498110D01*
X119152560Y-100750000D01*
X119152560Y-102450000D01*
X119196838Y-102685317D01*
X119335910Y-102901441D01*
X119341119Y-102905000D01*
X114337652Y-102905000D01*
X114476431Y-102701890D01*
X114527440Y-102450000D01*
X114527440Y-100750000D01*
X114483162Y-100514683D01*
X114344090Y-100298559D01*
X114131890Y-100153569D01*
X113880000Y-100102560D01*
X112180000Y-100102560D01*
X111944683Y-100146838D01*
X111728559Y-100285910D01*
X111583569Y-100498110D01*
X111569914Y-100565541D01*
X111540054Y-100520853D01*
X111058285Y-100198946D01*
X110490000Y-100085907D01*
X109921715Y-100198946D01*
X109439946Y-100520853D01*
X109118039Y-101002622D01*
X109005000Y-101570907D01*
X109005000Y-101629093D01*
X109118039Y-102197378D01*
X109439946Y-102679147D01*
X109777960Y-102905000D01*
X108550000Y-102905000D01*
X108550000Y-101600000D01*
X108455991Y-101127386D01*
X108188277Y-100726723D01*
X107787614Y-100459009D01*
X107315000Y-100365000D01*
X95250000Y-100365000D01*
X94777386Y-100459009D01*
X94376723Y-100726723D01*
X94109009Y-101127386D01*
X94015000Y-101600000D01*
X89127440Y-101600000D01*
X89127440Y-100750000D01*
X89083162Y-100514683D01*
X88944090Y-100298559D01*
X88731890Y-100153569D01*
X88480000Y-100102560D01*
X86780000Y-100102560D01*
X86544683Y-100146838D01*
X86328559Y-100285910D01*
X86183569Y-100498110D01*
X86132560Y-100750000D01*
X86132560Y-102450000D01*
X86176838Y-102685317D01*
X86315910Y-102901441D01*
X86528110Y-103046431D01*
X86595541Y-103060086D01*
X86550853Y-103089946D01*
X86228946Y-103571715D01*
X86115907Y-104140000D01*
X84251000Y-104140000D01*
X84251000Y-98729000D01*
X160351000Y-98729000D01*
X160351000Y-114834877D01*
X160351000Y-114834877D01*
G37*
X160351000Y-114834877D02*
X159488743Y-113971113D01*
X157693950Y-113225850D01*
X155750576Y-113224154D01*
X153954485Y-113966284D01*
X152579113Y-115339257D01*
X151833850Y-117134050D01*
X151832154Y-119077424D01*
X152574284Y-120873515D01*
X153947257Y-122248887D01*
X155742050Y-122994150D01*
X157685424Y-122995846D01*
X159481515Y-122253716D01*
X160351000Y-121385748D01*
X160351000Y-144044877D01*
X159488743Y-143181113D01*
X157693950Y-142435850D01*
X157607002Y-142435774D01*
X157607002Y-142290820D01*
X157836892Y-142411486D01*
X158361358Y-142165183D01*
X158751645Y-141736924D01*
X158921476Y-141326890D01*
X158800155Y-141097000D01*
X157607000Y-141097000D01*
X157607000Y-141117000D01*
X157353000Y-141117000D01*
X157353000Y-141097000D01*
X156159845Y-141097000D01*
X156038524Y-141326890D01*
X156208355Y-141736924D01*
X156598642Y-142165183D01*
X157123108Y-142411486D01*
X157352998Y-142290820D01*
X157352998Y-142435552D01*
X155750576Y-142434154D01*
X153954485Y-143176284D01*
X152579113Y-144549257D01*
X151833850Y-146344050D01*
X151832154Y-148287424D01*
X152574284Y-150083515D01*
X152935138Y-150445000D01*
X105384011Y-150445000D01*
X105738887Y-150090743D01*
X106213855Y-148946892D01*
X114128514Y-148946892D01*
X114374817Y-149471358D01*
X114803076Y-149861645D01*
X115213110Y-150031476D01*
X115443000Y-149910155D01*
X115443000Y-148717000D01*
X115697000Y-148717000D01*
X115697000Y-149910155D01*
X115926890Y-150031476D01*
X116336924Y-149861645D01*
X116765183Y-149471358D01*
X116840000Y-149312046D01*
X116914817Y-149471358D01*
X117343076Y-149861645D01*
X117753110Y-150031476D01*
X117983000Y-149910155D01*
X117983000Y-148717000D01*
X115697000Y-148717000D01*
X115443000Y-148717000D01*
X114249181Y-148717000D01*
X114128514Y-148946892D01*
X106213855Y-148946892D01*
X106484150Y-148295950D01*
X106484204Y-148233108D01*
X114128514Y-148233108D01*
X114249181Y-148463000D01*
X115443000Y-148463000D01*
X115443000Y-147269845D01*
X115697000Y-147269845D01*
X115697000Y-148463000D01*
X117983000Y-148463000D01*
X117983000Y-147269845D01*
X118237000Y-147269845D01*
X118237000Y-148463000D01*
X118257000Y-148463000D01*
X118257000Y-148717000D01*
X118237000Y-148717000D01*
X118237000Y-149910155D01*
X118466890Y-150031476D01*
X118876924Y-149861645D01*
X119305183Y-149471358D01*
X119372298Y-149328447D01*
X119599946Y-149669147D01*
X120081715Y-149991054D01*
X120650000Y-150104093D01*
X121218285Y-149991054D01*
X121700054Y-149669147D01*
X121920000Y-149339974D01*
X122139946Y-149669147D01*
X122621715Y-149991054D01*
X123190000Y-150104093D01*
X123758285Y-149991054D01*
X124240054Y-149669147D01*
X124460000Y-149339974D01*
X124679946Y-149669147D01*
X125161715Y-149991054D01*
X125730000Y-150104093D01*
X126298285Y-149991054D01*
X126780054Y-149669147D01*
X127000000Y-149339974D01*
X127219946Y-149669147D01*
X127701715Y-149991054D01*
X128270000Y-150104093D01*
X128838285Y-149991054D01*
X129320054Y-149669147D01*
X129540000Y-149339974D01*
X129759946Y-149669147D01*
X130241715Y-149991054D01*
X130810000Y-150104093D01*
X131378285Y-149991054D01*
X131860054Y-149669147D01*
X131887850Y-149627548D01*
X131896838Y-149675317D01*
X132035910Y-149891441D01*
X132248110Y-150036431D01*
X132500000Y-150087440D01*
X134200000Y-150087440D01*
X134435317Y-150043162D01*
X134651441Y-149904090D01*
X134796431Y-149691890D01*
X134847440Y-149440000D01*
X134847440Y-147740000D01*
X134803162Y-147504683D01*
X134664090Y-147288559D01*
X134451890Y-147143569D01*
X134200000Y-147092560D01*
X132500000Y-147092560D01*
X132264683Y-147136838D01*
X132048559Y-147275910D01*
X131903569Y-147488110D01*
X131889914Y-147555541D01*
X131860054Y-147510853D01*
X131378285Y-147188946D01*
X130810000Y-147075907D01*
X130241715Y-147188946D01*
X129759946Y-147510853D01*
X129540000Y-147840026D01*
X129320054Y-147510853D01*
X128838285Y-147188946D01*
X128270000Y-147075907D01*
X127701715Y-147188946D01*
X127219946Y-147510853D01*
X127000000Y-147840026D01*
X126780054Y-147510853D01*
X126298285Y-147188946D01*
X125730000Y-147075907D01*
X125161715Y-147188946D01*
X124679946Y-147510853D01*
X124460000Y-147840026D01*
X124240054Y-147510853D01*
X123758285Y-147188946D01*
X123190000Y-147075907D01*
X122621715Y-147188946D01*
X122139946Y-147510853D01*
X121920000Y-147840026D01*
X121700054Y-147510853D01*
X121218285Y-147188946D01*
X120650000Y-147075907D01*
X120081715Y-147188946D01*
X119599946Y-147510853D01*
X119372298Y-147851553D01*
X119305183Y-147708642D01*
X118876924Y-147318355D01*
X118466890Y-147148524D01*
X118237000Y-147269845D01*
X117983000Y-147269845D01*
X117753110Y-147148524D01*
X117343076Y-147318355D01*
X116914817Y-147708642D01*
X116840000Y-147867954D01*
X116765183Y-147708642D01*
X116336924Y-147318355D01*
X115926890Y-147148524D01*
X115697000Y-147269845D01*
X115443000Y-147269845D01*
X115213110Y-147148524D01*
X114803076Y-147318355D01*
X114374817Y-147708642D01*
X114128514Y-148233108D01*
X106484204Y-148233108D01*
X106485846Y-146352576D01*
X106222070Y-145714188D01*
X130055417Y-145714188D01*
X130117071Y-145949800D01*
X130617480Y-146125927D01*
X131147199Y-146097148D01*
X131502929Y-145949800D01*
X131564583Y-145714188D01*
X130810000Y-144959605D01*
X130055417Y-145714188D01*
X106222070Y-145714188D01*
X105756523Y-144587480D01*
X129464073Y-144587480D01*
X129492852Y-145117199D01*
X129640200Y-145472929D01*
X129875812Y-145534583D01*
X130630395Y-144780000D01*
X130989605Y-144780000D01*
X131744188Y-145534583D01*
X131979800Y-145472929D01*
X132155927Y-144972520D01*
X132127148Y-144442801D01*
X131979800Y-144087071D01*
X131744188Y-144025417D01*
X130989605Y-144780000D01*
X130630395Y-144780000D01*
X129875812Y-144025417D01*
X129640200Y-144087071D01*
X129464073Y-144587480D01*
X105756523Y-144587480D01*
X105743716Y-144556485D01*
X104370743Y-143181113D01*
X102740281Y-142504086D01*
X129476269Y-142504086D01*
X129678854Y-142994380D01*
X130053647Y-143369827D01*
X130375118Y-143503314D01*
X130117071Y-143610200D01*
X130055417Y-143845812D01*
X130810000Y-144600395D01*
X131564583Y-143845812D01*
X131502929Y-143610200D01*
X131223688Y-143511917D01*
X131564380Y-143371146D01*
X131939827Y-142996353D01*
X132143268Y-142506413D01*
X132143731Y-141975914D01*
X131941146Y-141485620D01*
X131566353Y-141110173D01*
X131076413Y-140906732D01*
X130545914Y-140906269D01*
X130055620Y-141108854D01*
X129680173Y-141483647D01*
X129476732Y-141973587D01*
X129476269Y-142504086D01*
X102740281Y-142504086D01*
X102575950Y-142435850D01*
X100632576Y-142434154D01*
X98836485Y-143176284D01*
X97461113Y-144549257D01*
X96715850Y-146344050D01*
X96714154Y-148287424D01*
X97456284Y-150083515D01*
X97817138Y-150445000D01*
X84251000Y-150445000D01*
X84251000Y-135890000D01*
X91731884Y-135890000D01*
X91830490Y-136385728D01*
X92111298Y-136805986D01*
X92531556Y-137086794D01*
X92899589Y-137160000D01*
X92531556Y-137233206D01*
X92111298Y-137514014D01*
X91830490Y-137934272D01*
X91731884Y-138430000D01*
X91830490Y-138925728D01*
X92111298Y-139345986D01*
X92531556Y-139626794D01*
X92899589Y-139700000D01*
X92531556Y-139773206D01*
X92111298Y-140054014D01*
X91830490Y-140474272D01*
X91731884Y-140970000D01*
X91830490Y-141465728D01*
X92111298Y-141885986D01*
X92531556Y-142166794D01*
X93027284Y-142265400D01*
X94424716Y-142265400D01*
X94920444Y-142166794D01*
X95340702Y-141885986D01*
X95621510Y-141465728D01*
X95720116Y-140970000D01*
X95621510Y-140474272D01*
X95340702Y-140054014D01*
X94920444Y-139773206D01*
X94552411Y-139700000D01*
X94920444Y-139626794D01*
X95340702Y-139345986D01*
X95621510Y-138925728D01*
X95720116Y-138430000D01*
X95621510Y-137934272D01*
X95340702Y-137514014D01*
X94920444Y-137233206D01*
X94552411Y-137160000D01*
X94920444Y-137086794D01*
X95340702Y-136805986D01*
X95621510Y-136385728D01*
X95720116Y-135890000D01*
X95621510Y-135394272D01*
X95340702Y-134974014D01*
X94920444Y-134693206D01*
X94579486Y-134625385D01*
X94999461Y-134498193D01*
X95392189Y-134176184D01*
X95631795Y-133728396D01*
X95639820Y-133677105D01*
X95515933Y-133477000D01*
X93853000Y-133477000D01*
X93853000Y-133497000D01*
X93599000Y-133497000D01*
X93599000Y-133477000D01*
X91936067Y-133477000D01*
X91812180Y-133677105D01*
X91820205Y-133728396D01*
X92059811Y-134176184D01*
X92452539Y-134498193D01*
X92872514Y-134625385D01*
X92531556Y-134693206D01*
X92111298Y-134974014D01*
X91830490Y-135394272D01*
X91731884Y-135890000D01*
X84251000Y-135890000D01*
X84251000Y-131137105D01*
X91812180Y-131137105D01*
X91820205Y-131188396D01*
X92059811Y-131636184D01*
X92452539Y-131958193D01*
X92854732Y-132080000D01*
X92452539Y-132201807D01*
X92059811Y-132523816D01*
X91820205Y-132971604D01*
X91812180Y-133022895D01*
X91936067Y-133223000D01*
X93599000Y-133223000D01*
X93599000Y-130937000D01*
X93853000Y-130937000D01*
X93853000Y-133223000D01*
X95515933Y-133223000D01*
X95639820Y-133022895D01*
X95631795Y-132971604D01*
X95392189Y-132523816D01*
X94999461Y-132201807D01*
X94597268Y-132080000D01*
X94999461Y-131958193D01*
X95392189Y-131636184D01*
X95631795Y-131188396D01*
X95639820Y-131137105D01*
X99432180Y-131137105D01*
X99440205Y-131188396D01*
X99679811Y-131636184D01*
X100072539Y-131958193D01*
X100474732Y-132080000D01*
X100072539Y-132201807D01*
X99679811Y-132523816D01*
X99440205Y-132971604D01*
X99432180Y-133022895D01*
X99556067Y-133223000D01*
X101219000Y-133223000D01*
X101219000Y-130937000D01*
X101473000Y-130937000D01*
X101473000Y-133223000D01*
X103135933Y-133223000D01*
X103259820Y-133022895D01*
X103251795Y-132971604D01*
X103012189Y-132523816D01*
X102619461Y-132201807D01*
X102217268Y-132080000D01*
X102619461Y-131958193D01*
X103012189Y-131636184D01*
X103251795Y-131188396D01*
X103259820Y-131137105D01*
X103135933Y-130937000D01*
X101473000Y-130937000D01*
X101219000Y-130937000D01*
X99556067Y-130937000D01*
X99432180Y-131137105D01*
X95639820Y-131137105D01*
X95515933Y-130937000D01*
X93853000Y-130937000D01*
X93599000Y-130937000D01*
X91936067Y-130937000D01*
X91812180Y-131137105D01*
X84251000Y-131137105D01*
X84251000Y-123190000D01*
X91731884Y-123190000D01*
X91830490Y-123685728D01*
X92111298Y-124105986D01*
X92531556Y-124386794D01*
X92899589Y-124460000D01*
X92531556Y-124533206D01*
X92111298Y-124814014D01*
X91830490Y-125234272D01*
X91731884Y-125730000D01*
X91830490Y-126225728D01*
X92111298Y-126645986D01*
X92531556Y-126926794D01*
X92899589Y-127000000D01*
X92531556Y-127073206D01*
X92111298Y-127354014D01*
X91830490Y-127774272D01*
X91731884Y-128270000D01*
X91830490Y-128765728D01*
X92111298Y-129185986D01*
X92531556Y-129466794D01*
X92872514Y-129534615D01*
X92452539Y-129661807D01*
X92059811Y-129983816D01*
X91820205Y-130431604D01*
X91812180Y-130482895D01*
X91936067Y-130683000D01*
X93599000Y-130683000D01*
X93599000Y-130663000D01*
X93853000Y-130663000D01*
X93853000Y-130683000D01*
X95515933Y-130683000D01*
X95639820Y-130482895D01*
X95631795Y-130431604D01*
X95392189Y-129983816D01*
X94999461Y-129661807D01*
X94579486Y-129534615D01*
X94920444Y-129466794D01*
X95340702Y-129185986D01*
X95621510Y-128765728D01*
X95720116Y-128270000D01*
X95621510Y-127774272D01*
X95340702Y-127354014D01*
X94920444Y-127073206D01*
X94552411Y-127000000D01*
X94920444Y-126926794D01*
X95340702Y-126645986D01*
X95621510Y-126225728D01*
X95720116Y-125730000D01*
X95621510Y-125234272D01*
X95340702Y-124814014D01*
X94920444Y-124533206D01*
X94552411Y-124460000D01*
X94920444Y-124386794D01*
X95340702Y-124105986D01*
X95621510Y-123685728D01*
X95720116Y-123190000D01*
X95621510Y-122694272D01*
X95340702Y-122274014D01*
X94920444Y-121993206D01*
X94424716Y-121894600D01*
X93027284Y-121894600D01*
X92531556Y-121993206D01*
X92111298Y-122274014D01*
X91830490Y-122694272D01*
X91731884Y-123190000D01*
X84251000Y-123190000D01*
X84251000Y-104140000D01*
X86115907Y-104140000D01*
X86228946Y-104708285D01*
X86550853Y-105190054D01*
X86880026Y-105410000D01*
X86550853Y-105629946D01*
X86228946Y-106111715D01*
X86115907Y-106680000D01*
X86228946Y-107248285D01*
X86550853Y-107730054D01*
X87032622Y-108051961D01*
X87600907Y-108165000D01*
X87659093Y-108165000D01*
X88227378Y-108051961D01*
X88709147Y-107730054D01*
X89031054Y-107248285D01*
X89144093Y-106680000D01*
X89031054Y-106111715D01*
X88709147Y-105629946D01*
X88379974Y-105410000D01*
X88709147Y-105190054D01*
X89031054Y-104708285D01*
X89144093Y-104140000D01*
X89031054Y-103571715D01*
X88709147Y-103089946D01*
X88667548Y-103062150D01*
X88715317Y-103053162D01*
X88931441Y-102914090D01*
X89076431Y-102701890D01*
X89127440Y-102450000D01*
X89127440Y-101600000D01*
X94015000Y-101600000D01*
X94015000Y-116840000D01*
X94109009Y-117312614D01*
X94376723Y-117713277D01*
X95011723Y-118348277D01*
X95412386Y-118615991D01*
X95885000Y-118710000D01*
X100111000Y-118710000D01*
X100111000Y-122020305D01*
X99731298Y-122274014D01*
X99450490Y-122694272D01*
X99351884Y-123190000D01*
X99450490Y-123685728D01*
X99731298Y-124105986D01*
X100151556Y-124386794D01*
X100519589Y-124460000D01*
X100151556Y-124533206D01*
X99731298Y-124814014D01*
X99450490Y-125234272D01*
X99351884Y-125730000D01*
X99450490Y-126225728D01*
X99731298Y-126645986D01*
X100151556Y-126926794D01*
X100519589Y-127000000D01*
X100151556Y-127073206D01*
X99731298Y-127354014D01*
X99450490Y-127774272D01*
X99351884Y-128270000D01*
X99450490Y-128765728D01*
X99731298Y-129185986D01*
X100151556Y-129466794D01*
X100492514Y-129534615D01*
X100072539Y-129661807D01*
X99679811Y-129983816D01*
X99440205Y-130431604D01*
X99432180Y-130482895D01*
X99556067Y-130683000D01*
X101219000Y-130683000D01*
X101219000Y-130663000D01*
X101473000Y-130663000D01*
X101473000Y-130683000D01*
X103135933Y-130683000D01*
X103259820Y-130482895D01*
X103251795Y-130431604D01*
X103213413Y-130359873D01*
X103439515Y-130586371D01*
X103893266Y-130774785D01*
X104384579Y-130775214D01*
X104475000Y-130737853D01*
X104475000Y-137495000D01*
X102932246Y-137495000D01*
X102540444Y-137233206D01*
X102172411Y-137160000D01*
X102540444Y-137086794D01*
X102960702Y-136805986D01*
X103241510Y-136385728D01*
X103340116Y-135890000D01*
X103241510Y-135394272D01*
X102960702Y-134974014D01*
X102540444Y-134693206D01*
X102199486Y-134625385D01*
X102619461Y-134498193D01*
X103012189Y-134176184D01*
X103251795Y-133728396D01*
X103259820Y-133677105D01*
X103135933Y-133477000D01*
X101473000Y-133477000D01*
X101473000Y-133497000D01*
X101219000Y-133497000D01*
X101219000Y-133477000D01*
X99556067Y-133477000D01*
X99432180Y-133677105D01*
X99440205Y-133728396D01*
X99679811Y-134176184D01*
X100072539Y-134498193D01*
X100492514Y-134625385D01*
X100151556Y-134693206D01*
X99731298Y-134974014D01*
X99450490Y-135394272D01*
X99351884Y-135890000D01*
X99450490Y-136385728D01*
X99731298Y-136805986D01*
X100151556Y-137086794D01*
X100519589Y-137160000D01*
X100151556Y-137233206D01*
X99731298Y-137514014D01*
X99450490Y-137934272D01*
X99351884Y-138430000D01*
X99450490Y-138925728D01*
X99731298Y-139345986D01*
X100151556Y-139626794D01*
X100519589Y-139700000D01*
X100151556Y-139773206D01*
X99731298Y-140054014D01*
X99450490Y-140474272D01*
X99351884Y-140970000D01*
X99450490Y-141465728D01*
X99731298Y-141885986D01*
X100151556Y-142166794D01*
X100647284Y-142265400D01*
X102044716Y-142265400D01*
X102540444Y-142166794D01*
X102960702Y-141885986D01*
X103241510Y-141465728D01*
X103340116Y-140970000D01*
X103241510Y-140474272D01*
X102960702Y-140054014D01*
X102540444Y-139773206D01*
X102172411Y-139700000D01*
X102540444Y-139626794D01*
X102932246Y-139365000D01*
X105410000Y-139365000D01*
X105767809Y-139293827D01*
X106071145Y-139091145D01*
X106273827Y-138787809D01*
X106292469Y-138694086D01*
X126936269Y-138694086D01*
X127138854Y-139184380D01*
X127513647Y-139559827D01*
X128003587Y-139763268D01*
X128534086Y-139763731D01*
X129024380Y-139561146D01*
X129399827Y-139186353D01*
X129540094Y-138848554D01*
X129678854Y-139184380D01*
X130053647Y-139559827D01*
X130543587Y-139763268D01*
X131074086Y-139763731D01*
X131564380Y-139561146D01*
X131939827Y-139186353D01*
X132105698Y-138786890D01*
X156038524Y-138786890D01*
X156208355Y-139196924D01*
X156598642Y-139625183D01*
X156757954Y-139700000D01*
X156598642Y-139774817D01*
X156208355Y-140203076D01*
X156038524Y-140613110D01*
X156159845Y-140843000D01*
X157353000Y-140843000D01*
X157353000Y-138557000D01*
X157607000Y-138557000D01*
X157607000Y-140843000D01*
X158800155Y-140843000D01*
X158921476Y-140613110D01*
X158751645Y-140203076D01*
X158361358Y-139774817D01*
X158202046Y-139700000D01*
X158361358Y-139625183D01*
X158751645Y-139196924D01*
X158921476Y-138786890D01*
X158800155Y-138557000D01*
X157607000Y-138557000D01*
X157353000Y-138557000D01*
X156159845Y-138557000D01*
X156038524Y-138786890D01*
X132105698Y-138786890D01*
X132143268Y-138696413D01*
X132143731Y-138165914D01*
X131941146Y-137675620D01*
X131566353Y-137300173D01*
X131076413Y-137096732D01*
X130545914Y-137096269D01*
X130055620Y-137298854D01*
X129680173Y-137673647D01*
X129539906Y-138011446D01*
X129401146Y-137675620D01*
X129026353Y-137300173D01*
X128536413Y-137096732D01*
X128005914Y-137096269D01*
X127515620Y-137298854D01*
X127140173Y-137673647D01*
X126936732Y-138163587D01*
X126936269Y-138694086D01*
X106292469Y-138694086D01*
X106345000Y-138430000D01*
X106345000Y-136246890D01*
X156038524Y-136246890D01*
X156208355Y-136656924D01*
X156598642Y-137085183D01*
X156757954Y-137160000D01*
X156598642Y-137234817D01*
X156208355Y-137663076D01*
X156038524Y-138073110D01*
X156159845Y-138303000D01*
X157353000Y-138303000D01*
X157353000Y-136017000D01*
X157607000Y-136017000D01*
X157607000Y-138303000D01*
X158800155Y-138303000D01*
X158921476Y-138073110D01*
X158751645Y-137663076D01*
X158361358Y-137234817D01*
X158202046Y-137160000D01*
X158361358Y-137085183D01*
X158751645Y-136656924D01*
X158921476Y-136246890D01*
X158800155Y-136017000D01*
X157607000Y-136017000D01*
X157353000Y-136017000D01*
X156159845Y-136017000D01*
X156038524Y-136246890D01*
X106345000Y-136246890D01*
X106345000Y-134905750D01*
X109055000Y-134905750D01*
X109055000Y-135546310D01*
X109151673Y-135779699D01*
X109330302Y-135958327D01*
X109563691Y-136055000D01*
X110204250Y-136055000D01*
X110363000Y-135896250D01*
X110363000Y-134747000D01*
X109213750Y-134747000D01*
X109055000Y-134905750D01*
X106345000Y-134905750D01*
X106345000Y-133693690D01*
X109055000Y-133693690D01*
X109055000Y-134334250D01*
X109213750Y-134493000D01*
X110363000Y-134493000D01*
X110363000Y-133343750D01*
X110617000Y-133343750D01*
X110617000Y-134493000D01*
X110637000Y-134493000D01*
X110637000Y-134747000D01*
X110617000Y-134747000D01*
X110617000Y-135896250D01*
X110775750Y-136055000D01*
X111416309Y-136055000D01*
X111649698Y-135958327D01*
X111828327Y-135779699D01*
X111925000Y-135546310D01*
X111925000Y-135544239D01*
X112216077Y-135835824D01*
X112743309Y-136054750D01*
X113314187Y-136055248D01*
X113841800Y-135837243D01*
X114245824Y-135433923D01*
X114299862Y-135303785D01*
X114352757Y-135431800D01*
X114756077Y-135835824D01*
X115283309Y-136054750D01*
X115854187Y-136055248D01*
X116381800Y-135837243D01*
X116785824Y-135433923D01*
X116839862Y-135303785D01*
X116892757Y-135431800D01*
X117296077Y-135835824D01*
X117823309Y-136054750D01*
X118394187Y-136055248D01*
X118921800Y-135837243D01*
X119325824Y-135433923D01*
X119379862Y-135303785D01*
X119432757Y-135431800D01*
X119836077Y-135835824D01*
X120363309Y-136054750D01*
X120934187Y-136055248D01*
X121461800Y-135837243D01*
X121865824Y-135433923D01*
X121919862Y-135303785D01*
X121972757Y-135431800D01*
X122376077Y-135835824D01*
X122903309Y-136054750D01*
X123474187Y-136055248D01*
X124001800Y-135837243D01*
X124405824Y-135433923D01*
X124459862Y-135303785D01*
X124512757Y-135431800D01*
X124916077Y-135835824D01*
X125443309Y-136054750D01*
X126014187Y-136055248D01*
X126541800Y-135837243D01*
X126945824Y-135433923D01*
X126999862Y-135303785D01*
X127052757Y-135431800D01*
X127456077Y-135835824D01*
X127983309Y-136054750D01*
X128554187Y-136055248D01*
X129081800Y-135837243D01*
X129485824Y-135433923D01*
X129539862Y-135303785D01*
X129592757Y-135431800D01*
X129996077Y-135835824D01*
X130523309Y-136054750D01*
X131094187Y-136055248D01*
X131621800Y-135837243D01*
X132025824Y-135433923D01*
X132079862Y-135303785D01*
X132132757Y-135431800D01*
X132536077Y-135835824D01*
X133063309Y-136054750D01*
X133634187Y-136055248D01*
X134161800Y-135837243D01*
X134565824Y-135433923D01*
X134619862Y-135303785D01*
X134672757Y-135431800D01*
X135076077Y-135835824D01*
X135603309Y-136054750D01*
X136174187Y-136055248D01*
X136701800Y-135837243D01*
X137105824Y-135433923D01*
X137159862Y-135303785D01*
X137212757Y-135431800D01*
X137616077Y-135835824D01*
X138143309Y-136054750D01*
X138714187Y-136055248D01*
X139241800Y-135837243D01*
X139645824Y-135433923D01*
X139699862Y-135303785D01*
X139752757Y-135431800D01*
X140156077Y-135835824D01*
X140683309Y-136054750D01*
X141254187Y-136055248D01*
X141781800Y-135837243D01*
X142185824Y-135433923D01*
X142239862Y-135303785D01*
X142292757Y-135431800D01*
X142696077Y-135835824D01*
X143223309Y-136054750D01*
X143794187Y-136055248D01*
X144321800Y-135837243D01*
X144725824Y-135433923D01*
X144944750Y-134906691D01*
X144945248Y-134335813D01*
X144727243Y-133808200D01*
X144626110Y-133706890D01*
X156038524Y-133706890D01*
X156208355Y-134116924D01*
X156598642Y-134545183D01*
X156757954Y-134620000D01*
X156598642Y-134694817D01*
X156208355Y-135123076D01*
X156038524Y-135533110D01*
X156159845Y-135763000D01*
X157353000Y-135763000D01*
X157353000Y-133477000D01*
X157607000Y-133477000D01*
X157607000Y-135763000D01*
X158800155Y-135763000D01*
X158921476Y-135533110D01*
X158751645Y-135123076D01*
X158361358Y-134694817D01*
X158202046Y-134620000D01*
X158361358Y-134545183D01*
X158751645Y-134116924D01*
X158921476Y-133706890D01*
X158800155Y-133477000D01*
X157607000Y-133477000D01*
X157353000Y-133477000D01*
X156159845Y-133477000D01*
X156038524Y-133706890D01*
X144626110Y-133706890D01*
X144323923Y-133404176D01*
X144193785Y-133350138D01*
X144321800Y-133297243D01*
X144725824Y-132893923D01*
X144944750Y-132366691D01*
X144945248Y-131795813D01*
X144727243Y-131268200D01*
X144626110Y-131166890D01*
X156038524Y-131166890D01*
X156208355Y-131576924D01*
X156598642Y-132005183D01*
X156757954Y-132080000D01*
X156598642Y-132154817D01*
X156208355Y-132583076D01*
X156038524Y-132993110D01*
X156159845Y-133223000D01*
X157353000Y-133223000D01*
X157353000Y-130937000D01*
X157607000Y-130937000D01*
X157607000Y-133223000D01*
X158800155Y-133223000D01*
X158921476Y-132993110D01*
X158751645Y-132583076D01*
X158361358Y-132154817D01*
X158202046Y-132080000D01*
X158361358Y-132005183D01*
X158751645Y-131576924D01*
X158921476Y-131166890D01*
X158800155Y-130937000D01*
X157607000Y-130937000D01*
X157353000Y-130937000D01*
X156159845Y-130937000D01*
X156038524Y-131166890D01*
X144626110Y-131166890D01*
X144323923Y-130864176D01*
X144193785Y-130810138D01*
X144321800Y-130757243D01*
X144725824Y-130353923D01*
X144944750Y-129826691D01*
X144945248Y-129255813D01*
X144727243Y-128728200D01*
X144626110Y-128626890D01*
X156038524Y-128626890D01*
X156208355Y-129036924D01*
X156598642Y-129465183D01*
X156757954Y-129540000D01*
X156598642Y-129614817D01*
X156208355Y-130043076D01*
X156038524Y-130453110D01*
X156159845Y-130683000D01*
X157353000Y-130683000D01*
X157353000Y-128397000D01*
X157607000Y-128397000D01*
X157607000Y-130683000D01*
X158800155Y-130683000D01*
X158921476Y-130453110D01*
X158751645Y-130043076D01*
X158361358Y-129614817D01*
X158202046Y-129540000D01*
X158361358Y-129465183D01*
X158751645Y-129036924D01*
X158921476Y-128626890D01*
X158800155Y-128397000D01*
X157607000Y-128397000D01*
X157353000Y-128397000D01*
X156159845Y-128397000D01*
X156038524Y-128626890D01*
X144626110Y-128626890D01*
X144323923Y-128324176D01*
X144209232Y-128276552D01*
X144264005Y-128253864D01*
X144338139Y-128007745D01*
X143510000Y-127179605D01*
X142681861Y-128007745D01*
X142755995Y-128253864D01*
X142814254Y-128274805D01*
X142698200Y-128322757D01*
X142294176Y-128726077D01*
X142075250Y-129253309D01*
X142074752Y-129824187D01*
X142292757Y-130351800D01*
X142696077Y-130755824D01*
X142826215Y-130809862D01*
X142698200Y-130862757D01*
X142294176Y-131266077D01*
X142075250Y-131793309D01*
X142074752Y-132364187D01*
X142292757Y-132891800D01*
X142696077Y-133295824D01*
X142826215Y-133349862D01*
X142698200Y-133402757D01*
X142294176Y-133806077D01*
X142240138Y-133936215D01*
X142187243Y-133808200D01*
X141783923Y-133404176D01*
X141256691Y-133185250D01*
X140685813Y-133184752D01*
X140158200Y-133402757D01*
X139754176Y-133806077D01*
X139700138Y-133936215D01*
X139647243Y-133808200D01*
X139243923Y-133404176D01*
X138716691Y-133185250D01*
X138145813Y-133184752D01*
X137618200Y-133402757D01*
X137214176Y-133806077D01*
X137160138Y-133936215D01*
X137107243Y-133808200D01*
X136703923Y-133404176D01*
X136176691Y-133185250D01*
X135605813Y-133184752D01*
X135078200Y-133402757D01*
X134674176Y-133806077D01*
X134620138Y-133936215D01*
X134567243Y-133808200D01*
X134163923Y-133404176D01*
X133636691Y-133185250D01*
X133065813Y-133184752D01*
X132538200Y-133402757D01*
X132134176Y-133806077D01*
X132080138Y-133936215D01*
X132027243Y-133808200D01*
X131623923Y-133404176D01*
X131096691Y-133185250D01*
X130525813Y-133184752D01*
X129998200Y-133402757D01*
X129594176Y-133806077D01*
X129540138Y-133936215D01*
X129487243Y-133808200D01*
X129083923Y-133404176D01*
X128556691Y-133185250D01*
X127985813Y-133184752D01*
X127458200Y-133402757D01*
X127054176Y-133806077D01*
X127000138Y-133936215D01*
X126947243Y-133808200D01*
X126543923Y-133404176D01*
X126016691Y-133185250D01*
X125445813Y-133184752D01*
X124918200Y-133402757D01*
X124514176Y-133806077D01*
X124460138Y-133936215D01*
X124407243Y-133808200D01*
X124003923Y-133404176D01*
X123476691Y-133185250D01*
X122905813Y-133184752D01*
X122378200Y-133402757D01*
X121974176Y-133806077D01*
X121920138Y-133936215D01*
X121867243Y-133808200D01*
X121463923Y-133404176D01*
X120936691Y-133185250D01*
X120365813Y-133184752D01*
X119838200Y-133402757D01*
X119434176Y-133806077D01*
X119380138Y-133936215D01*
X119327243Y-133808200D01*
X118923923Y-133404176D01*
X118396691Y-133185250D01*
X117825813Y-133184752D01*
X117298200Y-133402757D01*
X116894176Y-133806077D01*
X116840138Y-133936215D01*
X116787243Y-133808200D01*
X116383923Y-133404176D01*
X115856691Y-133185250D01*
X115285813Y-133184752D01*
X114758200Y-133402757D01*
X114354176Y-133806077D01*
X114300138Y-133936215D01*
X114247243Y-133808200D01*
X113843923Y-133404176D01*
X113316691Y-133185250D01*
X112745813Y-133184752D01*
X112218200Y-133402757D01*
X111925000Y-133695446D01*
X111925000Y-133693690D01*
X111828327Y-133460301D01*
X111649698Y-133281673D01*
X111416309Y-133185000D01*
X110775750Y-133185000D01*
X110617000Y-133343750D01*
X110363000Y-133343750D01*
X110204250Y-133185000D01*
X109563691Y-133185000D01*
X109330302Y-133281673D01*
X109151673Y-133460301D01*
X109055000Y-133693690D01*
X106345000Y-133693690D01*
X106345000Y-130475000D01*
X118110000Y-130475000D01*
X118467809Y-130403827D01*
X118771145Y-130201145D01*
X124294810Y-124677480D01*
X124294752Y-124744187D01*
X124512757Y-125271800D01*
X124916077Y-125675824D01*
X125046215Y-125729862D01*
X124918200Y-125782757D01*
X124514176Y-126186077D01*
X124295250Y-126713309D01*
X124294752Y-127284187D01*
X124512757Y-127811800D01*
X124916077Y-128215824D01*
X125443309Y-128434750D01*
X126014187Y-128435248D01*
X126541800Y-128217243D01*
X126945824Y-127813923D01*
X126999862Y-127683785D01*
X127052757Y-127811800D01*
X127456077Y-128215824D01*
X127983309Y-128434750D01*
X128554187Y-128435248D01*
X129081800Y-128217243D01*
X129485824Y-127813923D01*
X129539862Y-127683785D01*
X129592757Y-127811800D01*
X129996077Y-128215824D01*
X130523309Y-128434750D01*
X131094187Y-128435248D01*
X131621800Y-128217243D01*
X132025824Y-127813923D01*
X132079862Y-127683785D01*
X132132757Y-127811800D01*
X132536077Y-128215824D01*
X133063309Y-128434750D01*
X133634187Y-128435248D01*
X134161800Y-128217243D01*
X134565824Y-127813923D01*
X134619862Y-127683785D01*
X134672757Y-127811800D01*
X135076077Y-128215824D01*
X135603309Y-128434750D01*
X136174187Y-128435248D01*
X136701800Y-128217243D01*
X137105824Y-127813923D01*
X137159862Y-127683785D01*
X137212757Y-127811800D01*
X137616077Y-128215824D01*
X138143309Y-128434750D01*
X138714187Y-128435248D01*
X139241800Y-128217243D01*
X139645824Y-127813923D01*
X139699862Y-127683785D01*
X139752757Y-127811800D01*
X140156077Y-128215824D01*
X140683309Y-128434750D01*
X141254187Y-128435248D01*
X141781800Y-128217243D01*
X142185824Y-127813923D01*
X142233448Y-127699232D01*
X142256136Y-127754005D01*
X142502255Y-127828139D01*
X143330395Y-127000000D01*
X143689605Y-127000000D01*
X144517745Y-127828139D01*
X144763864Y-127754005D01*
X144956965Y-127216777D01*
X144929778Y-126646546D01*
X144763864Y-126245995D01*
X144517745Y-126171861D01*
X143689605Y-127000000D01*
X143330395Y-127000000D01*
X142502255Y-126171861D01*
X142256136Y-126245995D01*
X142235195Y-126304254D01*
X142187243Y-126188200D01*
X141783923Y-125784176D01*
X141653785Y-125730138D01*
X141781800Y-125677243D01*
X142185824Y-125273923D01*
X142239862Y-125143785D01*
X142292757Y-125271800D01*
X142696077Y-125675824D01*
X142810768Y-125723448D01*
X142755995Y-125746136D01*
X142681861Y-125992255D01*
X143510000Y-126820395D01*
X144314644Y-126015750D01*
X155995000Y-126015750D01*
X155995000Y-126706310D01*
X156091673Y-126939699D01*
X156270302Y-127118327D01*
X156479878Y-127205136D01*
X156208355Y-127503076D01*
X156038524Y-127913110D01*
X156159845Y-128143000D01*
X157353000Y-128143000D01*
X157353000Y-125857000D01*
X157607000Y-125857000D01*
X157607000Y-128143000D01*
X158800155Y-128143000D01*
X158921476Y-127913110D01*
X158751645Y-127503076D01*
X158480122Y-127205136D01*
X158689698Y-127118327D01*
X158868327Y-126939699D01*
X158965000Y-126706310D01*
X158965000Y-126015750D01*
X158806250Y-125857000D01*
X157607000Y-125857000D01*
X157353000Y-125857000D01*
X156153750Y-125857000D01*
X155995000Y-126015750D01*
X144314644Y-126015750D01*
X144338139Y-125992255D01*
X144264005Y-125746136D01*
X144205746Y-125725195D01*
X144321800Y-125677243D01*
X144725824Y-125273923D01*
X144941843Y-124753690D01*
X155995000Y-124753690D01*
X155995000Y-125444250D01*
X156153750Y-125603000D01*
X157353000Y-125603000D01*
X157353000Y-124403750D01*
X157607000Y-124403750D01*
X157607000Y-125603000D01*
X158806250Y-125603000D01*
X158965000Y-125444250D01*
X158965000Y-124753690D01*
X158868327Y-124520301D01*
X158689698Y-124341673D01*
X158456309Y-124245000D01*
X157765750Y-124245000D01*
X157607000Y-124403750D01*
X157353000Y-124403750D01*
X157194250Y-124245000D01*
X156503691Y-124245000D01*
X156270302Y-124341673D01*
X156091673Y-124520301D01*
X155995000Y-124753690D01*
X144941843Y-124753690D01*
X144944750Y-124746691D01*
X144945248Y-124175813D01*
X144727243Y-123648200D01*
X144323923Y-123244176D01*
X144193785Y-123190138D01*
X144321800Y-123137243D01*
X144725824Y-122733923D01*
X144944750Y-122206691D01*
X144945248Y-121635813D01*
X144727243Y-121108200D01*
X144323923Y-120704176D01*
X144193785Y-120650138D01*
X144321800Y-120597243D01*
X144725824Y-120193923D01*
X144944750Y-119666691D01*
X144944769Y-119644086D01*
X145986269Y-119644086D01*
X146188854Y-120134380D01*
X146563647Y-120509827D01*
X147053587Y-120713268D01*
X147584086Y-120713731D01*
X148074380Y-120511146D01*
X148449827Y-120136353D01*
X148590094Y-119798554D01*
X148728854Y-120134380D01*
X149103647Y-120509827D01*
X149593587Y-120713268D01*
X150124086Y-120713731D01*
X150614380Y-120511146D01*
X150989827Y-120136353D01*
X151193268Y-119646413D01*
X151193731Y-119115914D01*
X150991146Y-118625620D01*
X150616353Y-118250173D01*
X150126413Y-118046732D01*
X149595914Y-118046269D01*
X149105620Y-118248854D01*
X148730173Y-118623647D01*
X148589906Y-118961446D01*
X148451146Y-118625620D01*
X148076353Y-118250173D01*
X147586413Y-118046732D01*
X147055914Y-118046269D01*
X146565620Y-118248854D01*
X146190173Y-118623647D01*
X145986732Y-119113587D01*
X145986269Y-119644086D01*
X144944769Y-119644086D01*
X144945248Y-119095813D01*
X144727243Y-118568200D01*
X144323923Y-118164176D01*
X143796691Y-117945250D01*
X143225813Y-117944752D01*
X142698200Y-118162757D01*
X142294176Y-118566077D01*
X142240138Y-118696215D01*
X142187243Y-118568200D01*
X141783923Y-118164176D01*
X141256691Y-117945250D01*
X140685813Y-117944752D01*
X140158200Y-118162757D01*
X139754176Y-118566077D01*
X139700138Y-118696215D01*
X139647243Y-118568200D01*
X139243923Y-118164176D01*
X138716691Y-117945250D01*
X138145813Y-117944752D01*
X137618200Y-118162757D01*
X137214176Y-118566077D01*
X137160138Y-118696215D01*
X137107243Y-118568200D01*
X136703923Y-118164176D01*
X136176691Y-117945250D01*
X135605813Y-117944752D01*
X135078200Y-118162757D01*
X134674176Y-118566077D01*
X134620138Y-118696215D01*
X134567243Y-118568200D01*
X134163923Y-118164176D01*
X133636691Y-117945250D01*
X133065813Y-117944752D01*
X132538200Y-118162757D01*
X132134176Y-118566077D01*
X132080138Y-118696215D01*
X132027243Y-118568200D01*
X131623923Y-118164176D01*
X131096691Y-117945250D01*
X130525813Y-117944752D01*
X129998200Y-118162757D01*
X129594176Y-118566077D01*
X129540138Y-118696215D01*
X129487243Y-118568200D01*
X129083923Y-118164176D01*
X128556691Y-117945250D01*
X127985813Y-117944752D01*
X127458200Y-118162757D01*
X127054176Y-118566077D01*
X127000138Y-118696215D01*
X126947243Y-118568200D01*
X126543923Y-118164176D01*
X126016691Y-117945250D01*
X125445813Y-117944752D01*
X124918200Y-118162757D01*
X124514176Y-118566077D01*
X124460138Y-118696215D01*
X124407243Y-118568200D01*
X124003923Y-118164176D01*
X123476691Y-117945250D01*
X122905813Y-117944752D01*
X122378200Y-118162757D01*
X121974176Y-118566077D01*
X121920138Y-118696215D01*
X121867243Y-118568200D01*
X121463923Y-118164176D01*
X120936691Y-117945250D01*
X120365813Y-117944752D01*
X119838200Y-118162757D01*
X119434176Y-118566077D01*
X119380138Y-118696215D01*
X119327243Y-118568200D01*
X118923923Y-118164176D01*
X118396691Y-117945250D01*
X117825813Y-117944752D01*
X117298200Y-118162757D01*
X116894176Y-118566077D01*
X116840138Y-118696215D01*
X116787243Y-118568200D01*
X116383923Y-118164176D01*
X115856691Y-117945250D01*
X115285813Y-117944752D01*
X114758200Y-118162757D01*
X114354176Y-118566077D01*
X114306552Y-118680768D01*
X114283864Y-118625995D01*
X114037745Y-118551861D01*
X113209605Y-119380000D01*
X114037745Y-120208139D01*
X114283864Y-120134005D01*
X114304805Y-120075746D01*
X114352757Y-120191800D01*
X114756077Y-120595824D01*
X115283309Y-120814750D01*
X115854187Y-120815248D01*
X116381800Y-120597243D01*
X116785824Y-120193923D01*
X116839862Y-120063785D01*
X116892757Y-120191800D01*
X117296077Y-120595824D01*
X117426215Y-120649862D01*
X117298200Y-120702757D01*
X116894176Y-121106077D01*
X116675250Y-121633309D01*
X116674752Y-122204187D01*
X116892757Y-122731800D01*
X117296077Y-123135824D01*
X117823309Y-123354750D01*
X118394187Y-123355248D01*
X118921800Y-123137243D01*
X119325824Y-122733923D01*
X119379862Y-122603785D01*
X119432757Y-122731800D01*
X119836077Y-123135824D01*
X120363309Y-123354750D01*
X120934187Y-123355248D01*
X121461800Y-123137243D01*
X121865824Y-122733923D01*
X121919862Y-122603785D01*
X121972757Y-122731800D01*
X122376077Y-123135824D01*
X122903309Y-123354750D01*
X122972899Y-123354811D01*
X117722710Y-128605000D01*
X106397290Y-128605000D01*
X107341145Y-127661145D01*
X107543827Y-127357809D01*
X107615000Y-127000000D01*
X107615000Y-122204187D01*
X111594752Y-122204187D01*
X111812757Y-122731800D01*
X112216077Y-123135824D01*
X112743309Y-123354750D01*
X113314187Y-123355248D01*
X113841800Y-123137243D01*
X114245824Y-122733923D01*
X114464750Y-122206691D01*
X114465248Y-121635813D01*
X114247243Y-121108200D01*
X113843923Y-120704176D01*
X113729232Y-120656552D01*
X113784005Y-120633864D01*
X113858139Y-120387745D01*
X113030000Y-119559605D01*
X112201861Y-120387745D01*
X112275995Y-120633864D01*
X112334254Y-120654805D01*
X112218200Y-120702757D01*
X111814176Y-121106077D01*
X111595250Y-121633309D01*
X111594752Y-122204187D01*
X107615000Y-122204187D01*
X107615000Y-119664187D01*
X109054752Y-119664187D01*
X109272757Y-120191800D01*
X109676077Y-120595824D01*
X110203309Y-120814750D01*
X110774187Y-120815248D01*
X111301800Y-120597243D01*
X111705824Y-120193923D01*
X111753448Y-120079232D01*
X111776136Y-120134005D01*
X112022255Y-120208139D01*
X112850395Y-119380000D01*
X112022255Y-118551861D01*
X111776136Y-118625995D01*
X111755195Y-118684254D01*
X111707243Y-118568200D01*
X111511640Y-118372255D01*
X112201861Y-118372255D01*
X113030000Y-119200395D01*
X113858139Y-118372255D01*
X113784005Y-118126136D01*
X113246777Y-117933035D01*
X112676546Y-117960222D01*
X112275995Y-118126136D01*
X112201861Y-118372255D01*
X111511640Y-118372255D01*
X111303923Y-118164176D01*
X110776691Y-117945250D01*
X110205813Y-117944752D01*
X109678200Y-118162757D01*
X109274176Y-118566077D01*
X109055250Y-119093309D01*
X109054752Y-119664187D01*
X107615000Y-119664187D01*
X107615000Y-117862290D01*
X107702290Y-117775000D01*
X128270000Y-117775000D01*
X128627809Y-117703827D01*
X128931145Y-117501145D01*
X129133827Y-117197809D01*
X129205000Y-116840000D01*
X129205000Y-113964188D01*
X135135417Y-113964188D01*
X135197071Y-114199800D01*
X135697480Y-114375927D01*
X136227199Y-114347148D01*
X136582929Y-114199800D01*
X136644583Y-113964188D01*
X135890000Y-113209605D01*
X135135417Y-113964188D01*
X129205000Y-113964188D01*
X129205000Y-112837480D01*
X134544073Y-112837480D01*
X134572852Y-113367199D01*
X134720200Y-113722929D01*
X134955812Y-113784583D01*
X135710395Y-113030000D01*
X136069605Y-113030000D01*
X136824188Y-113784583D01*
X137059800Y-113722929D01*
X137210738Y-113294086D01*
X142176269Y-113294086D01*
X142378854Y-113784380D01*
X142753647Y-114159827D01*
X143243587Y-114363268D01*
X143774086Y-114363731D01*
X144264380Y-114161146D01*
X144639827Y-113786353D01*
X144843268Y-113296413D01*
X144843731Y-112765914D01*
X144641146Y-112275620D01*
X144266353Y-111900173D01*
X143944882Y-111766686D01*
X144202929Y-111659800D01*
X144264583Y-111424188D01*
X143510000Y-110669605D01*
X142755417Y-111424188D01*
X142817071Y-111659800D01*
X143096312Y-111758083D01*
X142755620Y-111898854D01*
X142380173Y-112273647D01*
X142176732Y-112763587D01*
X142176269Y-113294086D01*
X137210738Y-113294086D01*
X137235927Y-113222520D01*
X137207148Y-112692801D01*
X137059800Y-112337071D01*
X136824188Y-112275417D01*
X136069605Y-113030000D01*
X135710395Y-113030000D01*
X134955812Y-112275417D01*
X134720200Y-112337071D01*
X134544073Y-112837480D01*
X129205000Y-112837480D01*
X129205000Y-105674086D01*
X134556269Y-105674086D01*
X134758854Y-106164380D01*
X135133647Y-106539827D01*
X135471446Y-106680094D01*
X135135620Y-106818854D01*
X134760173Y-107193647D01*
X134556732Y-107683587D01*
X134556269Y-108214086D01*
X134758854Y-108704380D01*
X135133647Y-109079827D01*
X135471446Y-109220094D01*
X135135620Y-109358854D01*
X134760173Y-109733647D01*
X134556732Y-110223587D01*
X134556269Y-110754086D01*
X134758854Y-111244380D01*
X135133647Y-111619827D01*
X135455118Y-111753314D01*
X135197071Y-111860200D01*
X135135417Y-112095812D01*
X135890000Y-112850395D01*
X136644583Y-112095812D01*
X136582929Y-111860200D01*
X136303688Y-111761917D01*
X136644380Y-111621146D01*
X137019827Y-111246353D01*
X137223268Y-110756413D01*
X137223668Y-110297480D01*
X142164073Y-110297480D01*
X142192852Y-110827199D01*
X142340200Y-111182929D01*
X142575812Y-111244583D01*
X143330395Y-110490000D01*
X143689605Y-110490000D01*
X144444188Y-111244583D01*
X144679800Y-111182929D01*
X144855927Y-110682520D01*
X144827148Y-110152801D01*
X144679800Y-109797071D01*
X144444188Y-109735417D01*
X143689605Y-110490000D01*
X143330395Y-110490000D01*
X142575812Y-109735417D01*
X142340200Y-109797071D01*
X142164073Y-110297480D01*
X137223668Y-110297480D01*
X137223731Y-110225914D01*
X137021146Y-109735620D01*
X136841652Y-109555812D01*
X142755417Y-109555812D01*
X143510000Y-110310395D01*
X144264583Y-109555812D01*
X144202929Y-109320200D01*
X143702520Y-109144073D01*
X143172801Y-109172852D01*
X142817071Y-109320200D01*
X142755417Y-109555812D01*
X136841652Y-109555812D01*
X136646353Y-109360173D01*
X136308554Y-109219906D01*
X136644380Y-109081146D01*
X137019827Y-108706353D01*
X137223268Y-108216413D01*
X137223731Y-107685914D01*
X137021146Y-107195620D01*
X136646353Y-106820173D01*
X136308554Y-106679906D01*
X136644380Y-106541146D01*
X137019827Y-106166353D01*
X137223268Y-105676413D01*
X137223270Y-105674086D01*
X139636269Y-105674086D01*
X139838854Y-106164380D01*
X140213647Y-106539827D01*
X140551446Y-106680094D01*
X140215620Y-106818854D01*
X139840173Y-107193647D01*
X139636732Y-107683587D01*
X139636269Y-108214086D01*
X139838854Y-108704380D01*
X140213647Y-109079827D01*
X140703587Y-109283268D01*
X141234086Y-109283731D01*
X141724380Y-109081146D01*
X142099827Y-108706353D01*
X142239493Y-108370000D01*
X154712560Y-108370000D01*
X154712560Y-110070000D01*
X154756838Y-110305317D01*
X154895910Y-110521441D01*
X155108110Y-110666431D01*
X155360000Y-110717440D01*
X157060000Y-110717440D01*
X157295317Y-110673162D01*
X157511441Y-110534090D01*
X157656431Y-110321890D01*
X157707440Y-110070000D01*
X157707440Y-108370000D01*
X157663162Y-108134683D01*
X157524090Y-107918559D01*
X157311890Y-107773569D01*
X157060000Y-107722560D01*
X155360000Y-107722560D01*
X155124683Y-107766838D01*
X154908559Y-107905910D01*
X154763569Y-108118110D01*
X154712560Y-108370000D01*
X142239493Y-108370000D01*
X142303268Y-108216413D01*
X142303731Y-107685914D01*
X142101146Y-107195620D01*
X141726353Y-106820173D01*
X141388554Y-106679906D01*
X141724380Y-106541146D01*
X142099827Y-106166353D01*
X142303268Y-105676413D01*
X142303731Y-105145914D01*
X142101146Y-104655620D01*
X141726353Y-104280173D01*
X141236413Y-104076732D01*
X140705914Y-104076269D01*
X140215620Y-104278854D01*
X139840173Y-104653647D01*
X139636732Y-105143587D01*
X139636269Y-105674086D01*
X137223270Y-105674086D01*
X137223731Y-105145914D01*
X137021146Y-104655620D01*
X136646353Y-104280173D01*
X136156413Y-104076732D01*
X135625914Y-104076269D01*
X135135620Y-104278854D01*
X134760173Y-104653647D01*
X134556732Y-105143587D01*
X134556269Y-105674086D01*
X129205000Y-105674086D01*
X129205000Y-102756023D01*
X129320054Y-102679147D01*
X129540000Y-102349974D01*
X129759946Y-102679147D01*
X130241715Y-103001054D01*
X130810000Y-103114093D01*
X131378285Y-103001054D01*
X131860054Y-102679147D01*
X132080000Y-102349974D01*
X132299946Y-102679147D01*
X132781715Y-103001054D01*
X133350000Y-103114093D01*
X133918285Y-103001054D01*
X134400054Y-102679147D01*
X134620000Y-102349974D01*
X134839946Y-102679147D01*
X135321715Y-103001054D01*
X135890000Y-103114093D01*
X136458285Y-103001054D01*
X136940054Y-102679147D01*
X137160000Y-102349974D01*
X137379946Y-102679147D01*
X137861715Y-103001054D01*
X138430000Y-103114093D01*
X138998285Y-103001054D01*
X139480054Y-102679147D01*
X139700000Y-102349974D01*
X139919946Y-102679147D01*
X140401715Y-103001054D01*
X140970000Y-103114093D01*
X141538285Y-103001054D01*
X142020054Y-102679147D01*
X142247702Y-102338447D01*
X142314817Y-102481358D01*
X142743076Y-102871645D01*
X143153110Y-103041476D01*
X143383000Y-102920155D01*
X143383000Y-101727000D01*
X143637000Y-101727000D01*
X143637000Y-102920155D01*
X143866890Y-103041476D01*
X144276924Y-102871645D01*
X144705183Y-102481358D01*
X144951486Y-101956892D01*
X144830819Y-101727000D01*
X143637000Y-101727000D01*
X143383000Y-101727000D01*
X143363000Y-101727000D01*
X143363000Y-101473000D01*
X143383000Y-101473000D01*
X143383000Y-100279845D01*
X143637000Y-100279845D01*
X143637000Y-101473000D01*
X144830819Y-101473000D01*
X144951486Y-101243108D01*
X144705183Y-100718642D01*
X144276924Y-100328355D01*
X143866890Y-100158524D01*
X143637000Y-100279845D01*
X143383000Y-100279845D01*
X143153110Y-100158524D01*
X142743076Y-100328355D01*
X142314817Y-100718642D01*
X142247702Y-100861553D01*
X142020054Y-100520853D01*
X141538285Y-100198946D01*
X140970000Y-100085907D01*
X140401715Y-100198946D01*
X139919946Y-100520853D01*
X139700000Y-100850026D01*
X139480054Y-100520853D01*
X138998285Y-100198946D01*
X138430000Y-100085907D01*
X137861715Y-100198946D01*
X137379946Y-100520853D01*
X137160000Y-100850026D01*
X136940054Y-100520853D01*
X136458285Y-100198946D01*
X135890000Y-100085907D01*
X135321715Y-100198946D01*
X134839946Y-100520853D01*
X134620000Y-100850026D01*
X134400054Y-100520853D01*
X133918285Y-100198946D01*
X133350000Y-100085907D01*
X132781715Y-100198946D01*
X132299946Y-100520853D01*
X132080000Y-100850026D01*
X131860054Y-100520853D01*
X131378285Y-100198946D01*
X130810000Y-100085907D01*
X130241715Y-100198946D01*
X129759946Y-100520853D01*
X129540000Y-100850026D01*
X129320054Y-100520853D01*
X128838285Y-100198946D01*
X128270000Y-100085907D01*
X127701715Y-100198946D01*
X127219946Y-100520853D01*
X127000000Y-100850026D01*
X126780054Y-100520853D01*
X126298285Y-100198946D01*
X125730000Y-100085907D01*
X125161715Y-100198946D01*
X124679946Y-100520853D01*
X124460000Y-100850026D01*
X124240054Y-100520853D01*
X123758285Y-100198946D01*
X123190000Y-100085907D01*
X122621715Y-100198946D01*
X122139946Y-100520853D01*
X122112150Y-100562452D01*
X122103162Y-100514683D01*
X121964090Y-100298559D01*
X121751890Y-100153569D01*
X121500000Y-100102560D01*
X119800000Y-100102560D01*
X119564683Y-100146838D01*
X119348559Y-100285910D01*
X119203569Y-100498110D01*
X119152560Y-100750000D01*
X119152560Y-102450000D01*
X119196838Y-102685317D01*
X119335910Y-102901441D01*
X119341119Y-102905000D01*
X114337652Y-102905000D01*
X114476431Y-102701890D01*
X114527440Y-102450000D01*
X114527440Y-100750000D01*
X114483162Y-100514683D01*
X114344090Y-100298559D01*
X114131890Y-100153569D01*
X113880000Y-100102560D01*
X112180000Y-100102560D01*
X111944683Y-100146838D01*
X111728559Y-100285910D01*
X111583569Y-100498110D01*
X111569914Y-100565541D01*
X111540054Y-100520853D01*
X111058285Y-100198946D01*
X110490000Y-100085907D01*
X109921715Y-100198946D01*
X109439946Y-100520853D01*
X109118039Y-101002622D01*
X109005000Y-101570907D01*
X109005000Y-101629093D01*
X109118039Y-102197378D01*
X109439946Y-102679147D01*
X109777960Y-102905000D01*
X108550000Y-102905000D01*
X108550000Y-101600000D01*
X108455991Y-101127386D01*
X108188277Y-100726723D01*
X107787614Y-100459009D01*
X107315000Y-100365000D01*
X95250000Y-100365000D01*
X94777386Y-100459009D01*
X94376723Y-100726723D01*
X94109009Y-101127386D01*
X94015000Y-101600000D01*
X89127440Y-101600000D01*
X89127440Y-100750000D01*
X89083162Y-100514683D01*
X88944090Y-100298559D01*
X88731890Y-100153569D01*
X88480000Y-100102560D01*
X86780000Y-100102560D01*
X86544683Y-100146838D01*
X86328559Y-100285910D01*
X86183569Y-100498110D01*
X86132560Y-100750000D01*
X86132560Y-102450000D01*
X86176838Y-102685317D01*
X86315910Y-102901441D01*
X86528110Y-103046431D01*
X86595541Y-103060086D01*
X86550853Y-103089946D01*
X86228946Y-103571715D01*
X86115907Y-104140000D01*
X84251000Y-104140000D01*
X84251000Y-98729000D01*
X160351000Y-98729000D01*
X160351000Y-114834877D01*
G36*
X124679946Y-102679147D02*
X124795000Y-102756023D01*
X124795000Y-114635000D01*
X111012578Y-114635000D01*
X111413131Y-114555325D01*
X111948754Y-114197433D01*
X112306646Y-113661810D01*
X112432321Y-113030000D01*
X112306646Y-112398190D01*
X111948754Y-111862567D01*
X111774219Y-111745946D01*
X112001236Y-111567630D01*
X112317926Y-111004477D01*
X112349975Y-110872944D01*
X112230836Y-110617000D01*
X110617000Y-110617000D01*
X110617000Y-110637000D01*
X110363000Y-110637000D01*
X110363000Y-110617000D01*
X108749164Y-110617000D01*
X108630025Y-110872944D01*
X108662074Y-111004477D01*
X108978764Y-111567630D01*
X109205781Y-111745946D01*
X109031246Y-111862567D01*
X108673354Y-112398190D01*
X108547679Y-113030000D01*
X108673354Y-113661810D01*
X109031246Y-114197433D01*
X109566869Y-114555325D01*
X109967422Y-114635000D01*
X104140000Y-114635000D01*
X103782191Y-114706173D01*
X103478855Y-114908855D01*
X103276173Y-115212191D01*
X103205000Y-115570000D01*
X103205000Y-122639631D01*
X102960702Y-122274014D01*
X102581000Y-122020305D01*
X102581000Y-118187058D01*
X102740991Y-117947614D01*
X102835000Y-117475000D01*
X102740991Y-117002386D01*
X102473277Y-116601723D01*
X102072614Y-116334009D01*
X101600000Y-116240000D01*
X96485000Y-116240000D01*
X96485000Y-102835000D01*
X99342991Y-102835000D01*
X98836485Y-103044284D01*
X97461113Y-104417257D01*
X96715850Y-106212050D01*
X96714154Y-108155424D01*
X97456284Y-109951515D01*
X98829257Y-111326887D01*
X100624050Y-112072150D01*
X102567424Y-112073846D01*
X104363515Y-111331716D01*
X105738887Y-109958743D01*
X106484150Y-108163950D01*
X106484336Y-107950000D01*
X108547679Y-107950000D01*
X108673354Y-108581810D01*
X109031246Y-109117433D01*
X109205781Y-109234054D01*
X108978764Y-109412370D01*
X108662074Y-109975523D01*
X108630025Y-110107056D01*
X108749164Y-110363000D01*
X110363000Y-110363000D01*
X110363000Y-110343000D01*
X110617000Y-110343000D01*
X110617000Y-110363000D01*
X112230836Y-110363000D01*
X112349975Y-110107056D01*
X112317926Y-109975523D01*
X112001236Y-109412370D01*
X111774219Y-109234054D01*
X111948754Y-109117433D01*
X112306646Y-108581810D01*
X112432321Y-107950000D01*
X112306646Y-107318190D01*
X111948754Y-106782567D01*
X111413131Y-106424675D01*
X110781321Y-106299000D01*
X110198679Y-106299000D01*
X109566869Y-106424675D01*
X109031246Y-106782567D01*
X108673354Y-107318190D01*
X108547679Y-107950000D01*
X106484336Y-107950000D01*
X106485846Y-106220576D01*
X105743716Y-104424485D01*
X104370743Y-103049113D01*
X103855102Y-102835000D01*
X106080000Y-102835000D01*
X106080000Y-104140000D01*
X106174009Y-104612614D01*
X106441723Y-105013277D01*
X106842386Y-105280991D01*
X107315000Y-105375000D01*
X123190000Y-105375000D01*
X123662614Y-105280991D01*
X124063277Y-105013277D01*
X124330991Y-104612614D01*
X124425000Y-104140000D01*
X124425000Y-102402355D01*
X124460000Y-102349974D01*
X124679946Y-102679147D01*
X124679946Y-102679147D01*
G37*
X124679946Y-102679147D02*
X124795000Y-102756023D01*
X124795000Y-114635000D01*
X111012578Y-114635000D01*
X111413131Y-114555325D01*
X111948754Y-114197433D01*
X112306646Y-113661810D01*
X112432321Y-113030000D01*
X112306646Y-112398190D01*
X111948754Y-111862567D01*
X111774219Y-111745946D01*
X112001236Y-111567630D01*
X112317926Y-111004477D01*
X112349975Y-110872944D01*
X112230836Y-110617000D01*
X110617000Y-110617000D01*
X110617000Y-110637000D01*
X110363000Y-110637000D01*
X110363000Y-110617000D01*
X108749164Y-110617000D01*
X108630025Y-110872944D01*
X108662074Y-111004477D01*
X108978764Y-111567630D01*
X109205781Y-111745946D01*
X109031246Y-111862567D01*
X108673354Y-112398190D01*
X108547679Y-113030000D01*
X108673354Y-113661810D01*
X109031246Y-114197433D01*
X109566869Y-114555325D01*
X109967422Y-114635000D01*
X104140000Y-114635000D01*
X103782191Y-114706173D01*
X103478855Y-114908855D01*
X103276173Y-115212191D01*
X103205000Y-115570000D01*
X103205000Y-122639631D01*
X102960702Y-122274014D01*
X102581000Y-122020305D01*
X102581000Y-118187058D01*
X102740991Y-117947614D01*
X102835000Y-117475000D01*
X102740991Y-117002386D01*
X102473277Y-116601723D01*
X102072614Y-116334009D01*
X101600000Y-116240000D01*
X96485000Y-116240000D01*
X96485000Y-102835000D01*
X99342991Y-102835000D01*
X98836485Y-103044284D01*
X97461113Y-104417257D01*
X96715850Y-106212050D01*
X96714154Y-108155424D01*
X97456284Y-109951515D01*
X98829257Y-111326887D01*
X100624050Y-112072150D01*
X102567424Y-112073846D01*
X104363515Y-111331716D01*
X105738887Y-109958743D01*
X106484150Y-108163950D01*
X106484336Y-107950000D01*
X108547679Y-107950000D01*
X108673354Y-108581810D01*
X109031246Y-109117433D01*
X109205781Y-109234054D01*
X108978764Y-109412370D01*
X108662074Y-109975523D01*
X108630025Y-110107056D01*
X108749164Y-110363000D01*
X110363000Y-110363000D01*
X110363000Y-110343000D01*
X110617000Y-110343000D01*
X110617000Y-110363000D01*
X112230836Y-110363000D01*
X112349975Y-110107056D01*
X112317926Y-109975523D01*
X112001236Y-109412370D01*
X111774219Y-109234054D01*
X111948754Y-109117433D01*
X112306646Y-108581810D01*
X112432321Y-107950000D01*
X112306646Y-107318190D01*
X111948754Y-106782567D01*
X111413131Y-106424675D01*
X110781321Y-106299000D01*
X110198679Y-106299000D01*
X109566869Y-106424675D01*
X109031246Y-106782567D01*
X108673354Y-107318190D01*
X108547679Y-107950000D01*
X106484336Y-107950000D01*
X106485846Y-106220576D01*
X105743716Y-104424485D01*
X104370743Y-103049113D01*
X103855102Y-102835000D01*
X106080000Y-102835000D01*
X106080000Y-104140000D01*
X106174009Y-104612614D01*
X106441723Y-105013277D01*
X106842386Y-105280991D01*
X107315000Y-105375000D01*
X123190000Y-105375000D01*
X123662614Y-105280991D01*
X124063277Y-105013277D01*
X124330991Y-104612614D01*
X124425000Y-104140000D01*
X124425000Y-102402355D01*
X124460000Y-102349974D01*
X124679946Y-102679147D01*
M02*
